<?xml version="1.0" encoding="utf-8"?>
<!-- Generator: Adobe Illustrator 27.5.0, SVG Export Plug-In . SVG Version: 6.00 Build 0)  -->
<svg version="1.1" xmlns="http://www.w3.org/2000/svg" xmlns:xlink="http://www.w3.org/1999/xlink" x="0px" y="0px"
	 viewBox="0 0 500 500" style="enable-background:new 0 0 500 500;" xml:space="preserve">

<g id="OBJECTS">
	<g>
		<g>
			<g>
				<path style="fill:#08697F;" d="M111.724,362.569c0,0-0.166-0.689-0.561-1.891c-0.488-1.136-1.106-2.891-2.445-4.65
					c-1.324-1.737-3.071-3.794-5.577-5.28c-2.48-1.541-5.609-2.434-8.789-2.487c-3.176,0.038-6.439,0.979-8.879,2.88
					c-2.493,1.865-3.791,4.478-4.462,6.667c-0.709,2.238-0.335,4.224-0.064,5.446c0.212,0.621,0.392,1.081,0.556,1.381
					c0.149,0.299,0.228,0.459,0.228,0.459s0.004-0.178,0.011-0.511c-0.006-0.326,0.051-0.811,0.144-1.393
					c0.122-1.174,0.711-2.746,1.629-4.345c0.897-1.629,2.509-3.142,4.336-4.189c1.864-1.013,4.149-1.633,6.501-1.577
					c2.36-0.044,4.722,0.536,6.822,1.42c2.101,0.92,4.076,2.073,5.567,3.37c1.493,1.278,2.829,2.399,3.632,3.305
					C111.252,362.029,111.724,362.569,111.724,362.569z"/>
			</g>
			<g>
				<path style="fill:#08697F;" d="M97.499,339.985c0,0-0.074-0.123-0.211-0.354c-0.136-0.235-0.345-0.573-0.632-0.996
					c-0.631-0.763-1.499-2.004-2.923-3.046c-1.412-1.026-3.16-2.241-5.306-2.967c-2.131-0.764-4.518-1.186-7.116-1.043
					c-1.287,0.129-2.615,0.423-3.859,0.972c-1.263,0.549-2.401,1.388-3.254,2.391c-0.886,0.98-1.48,2.19-1.743,3.402
					c-0.263,1.2-0.178,2.454,0.143,3.45c0.639,2.047,2.251,2.985,3.223,3.354c1.073,0.31,1.653,0.106,1.646,0.141
					c0,0-0.122-0.071-0.351-0.205c-0.216-0.148-0.519-0.373-0.796-0.734c-0.634-0.614-1.062-1.859-1.063-3.081
					c-0.036-1.209,0.813-2.421,1.95-3.336c0.598-0.45,1.254-0.826,1.997-1.081c0.758-0.265,1.601-0.427,2.497-0.473
					c1.784-0.196,3.798,0.051,5.633,0.332c1.834,0.324,3.624,0.668,5.086,1.236c1.453,0.557,2.791,0.965,3.647,1.409
					c0.459,0.181,0.817,0.34,1.057,0.455C97.369,339.925,97.499,339.985,97.499,339.985z"/>
			</g>
			<g>
				<path style="fill:#08697F;" d="M121.737,399.011c-0.039-0.252-4.003-25.491-15.609-53.388
					c-10.743-25.823-30.421-59.286-63.154-72.056l-0.708,1.813c61.501,23.995,77.393,122.93,77.546,123.926L121.737,399.011z"/>
			</g>
			<g>
				<path style="fill:#08697F;" d="M117.552,379.823c-0.119-0.421-11.599-42.326,8.959-64.784l-1.436-1.314
					c-21.293,23.261-9.518,66.194-9.397,66.625L117.552,379.823z"/>
			</g>
			<g>
				<path style="fill:#08697F;" d="M111.535,359.888c-0.145-0.413-14.863-41.199-53.479-39.971l0.063,1.946
					c37.174-1.184,51.44,38.268,51.579,38.667L111.535,359.888z"/>
			</g>
			<g>
				<path style="fill:#08697F;" d="M101.893,336.094c-0.217-0.543-21.322-54.622,10.444-71.127l-0.896-1.728
					c-33.346,17.313-11.58,73.016-11.356,73.577L101.893,336.094z"/>
			</g>
			<g>
				<path style="fill:#08697F;" d="M67.507,288.847c0,0-0.366-0.382-1.052-1.028c-0.728-0.546-1.732-1.502-3.2-2.187
					c-1.453-0.672-3.261-1.501-5.41-1.719c-2.152-0.272-4.552,0.054-6.784,0.939c-2.193,0.97-4.227,2.56-5.403,4.628
					c-1.237,2.057-1.344,4.293-1.17,6.021c0.161,1.782,1.09,3.042,1.656,3.783c0.352,0.353,0.627,0.6,0.839,0.747
					c0.2,0.149,0.307,0.229,0.307,0.229s-0.036-0.128-0.105-0.367c-0.075-0.23-0.139-0.588-0.193-1.017
					c-0.182-0.84-0.058-2.055,0.205-3.31c0.238-1.281,1.032-2.611,1.954-3.677c0.976-1.051,2.259-2.014,3.783-2.598
					c1.491-0.68,3.162-0.997,4.785-1.145c1.637-0.109,3.306-0.158,4.736,0.066c1.422,0.211,2.734,0.268,3.609,0.453
					C66.979,288.763,67.507,288.847,67.507,288.847z"/>
			</g>
			<g>
				<path style="fill:#08697F;" d="M47.417,276.525c0,0-0.366-0.382-1.052-1.029c-0.729-0.546-1.732-1.502-3.2-2.186
					c-1.453-0.672-3.261-1.501-5.409-1.719c-2.152-0.272-4.552,0.054-6.784,0.939c-2.194,0.97-4.227,2.56-5.404,4.628
					c-1.237,2.058-1.344,4.293-1.17,6.021c0.161,1.782,1.09,3.042,1.656,3.783c0.352,0.353,0.628,0.6,0.84,0.747
					c0.2,0.149,0.307,0.229,0.307,0.229s-0.036-0.128-0.105-0.367c-0.075-0.23-0.139-0.588-0.193-1.017
					c-0.182-0.84-0.058-2.055,0.205-3.31c0.238-1.281,1.032-2.611,1.954-3.677c0.976-1.051,2.259-2.014,3.783-2.598
					c1.491-0.68,3.162-0.997,4.785-1.145c1.637-0.109,3.306-0.158,4.736,0.066c1.422,0.211,2.734,0.268,3.609,0.453
					C46.889,276.441,47.417,276.525,47.417,276.525z"/>
			</g>
			<g>
				<path style="fill:#08697F;" d="M88.33,313.246c0,0-0.152-0.444-0.503-1.207c-0.417-0.688-0.952-1.82-1.979-2.822
					c-1.02-0.983-2.276-2.191-3.922-3.024c-1.618-0.879-3.528-1.456-5.572-1.697c-2.035-0.14-4.245,0.11-6.085,1.082
					c-1.918,0.916-3.113,2.597-3.786,3.985c-0.721,1.438-0.57,2.85-0.442,3.672c0.115,0.428,0.237,0.739,0.341,0.943
					c0.098,0.199,0.15,0.305,0.15,0.305s0.033-0.113,0.094-0.324c0.057-0.206,0.173-0.503,0.353-0.839
					c0.252-0.701,0.968-1.491,1.748-2.237c0.794-0.787,1.969-1.276,3.133-1.571c1.222-0.278,2.602-0.401,4.062-0.218
					c1.46,0.081,2.975,0.451,4.405,0.82c1.412,0.405,2.827,0.763,3.956,1.304c1.121,0.529,2.213,0.887,2.886,1.281
					C87.915,313.017,88.33,313.246,88.33,313.246z"/>
			</g>
			<g>
				<path style="fill:#08697F;" d="M93.717,295.231c0,0,0.132-0.456,0.318-1.276c0.088-0.804,0.369-2.01,0.26-3.417
					c-0.117-1.395-0.202-3.089-0.712-4.803c-0.48-1.729-1.228-3.455-2.27-5.19c-1.117-1.654-2.61-3.321-4.55-4.227
					c-0.915-0.472-2.031-0.758-2.996-0.772c-0.98-0.027-1.872,0.133-2.656,0.353c-1.607,0.442-2.552,1.609-3.007,2.329
					c-0.206,0.406-0.312,0.732-0.358,0.959c-0.048,0.219-0.073,0.336-0.073,0.336s0.096-0.069,0.276-0.199
					c0.171-0.127,0.451-0.285,0.805-0.415c0.648-0.356,1.694-0.409,2.747-0.329c0.534,0.029,1.105,0.19,1.629,0.435
					c0.541,0.25,0.948,0.562,1.461,0.947c0.947,0.791,1.877,1.857,2.669,3.186c0.87,1.264,1.622,2.781,2.384,4.14
					c0.711,1.388,1.519,2.681,2.024,3.878c0.507,1.188,1.146,2.177,1.443,2.913C93.51,294.801,93.717,295.231,93.717,295.231z"/>
			</g>
			<g>
				<path style="fill:#08697F;" d="M95.984,316.399c0,0,0.183-0.345,0.503-0.947c0.23-0.6,0.762-1.42,1.142-2.349
					c0.374-0.941,1.035-1.911,1.62-2.835c0.617-0.895,1.278-1.772,2.084-2.436c0.735-0.735,1.598-1.207,2.405-1.556
					c0.795-0.292,1.796-0.554,2.646-0.41c0.83,0.115,1.697,0.254,2.213,0.577c0.285,0.128,0.521,0.256,0.663,0.361
					c0.152,0.104,0.232,0.16,0.232,0.16s-0.007-0.098-0.02-0.282c-0.009-0.192-0.054-0.463-0.142-0.829
					c-0.261-0.628-0.725-1.744-1.857-2.468c-1.084-0.709-2.621-1.453-4.454-1.29c-1.816,0.104-3.557,0.993-4.915,2.163
					c-1.295,1.241-2.262,2.753-2.72,4.282c-0.503,1.503-0.435,2.961-0.417,4.11c0.024,1.165,0.432,2.115,0.589,2.751
					C95.829,316.036,95.984,316.399,95.984,316.399z"/>
			</g>
			<g>
				<path style="fill:#08697F;" d="M98.125,280.267c0,0,0.084-0.093,0.242-0.266c0.163-0.168,0.368-0.426,0.693-0.702
					c0.519-0.629,1.5-1.301,2.509-2.056c1.025-0.768,2.406-1.32,3.784-1.793c0.705-0.216,1.428-0.386,2.157-0.517
					c0.734-0.104,1.473-0.147,2.2-0.107c0.728,0.016,1.461,0.117,2.184,0.279c0.717,0.188,1.423,0.414,2.11,0.682
					c1.332,0.586,2.671,1.233,3.634,2.077c0.943,0.832,1.875,1.574,2.342,2.241c0.305,0.3,0.492,0.572,0.642,0.752
					c0.144,0.185,0.221,0.284,0.221,0.284s0.004-0.124,0.012-0.357c0.001-0.233,0.035-0.591-0.005-1.036
					c-0.128-0.857-0.287-2.22-1.104-3.585c-0.81-1.331-1.934-2.932-3.667-4.076c-0.847-0.593-1.823-1.068-2.865-1.435
					c-1.053-0.343-2.175-0.556-3.32-0.64c-1.148-0.004-2.282,0.124-3.358,0.386c-1.067,0.288-2.076,0.687-2.966,1.211
					c-1.81,1.016-3.058,2.516-3.967,3.782c-0.916,1.301-1.183,2.644-1.375,3.489c-0.076,0.44-0.071,0.799-0.088,1.031
					C98.13,280.143,98.125,280.267,98.125,280.267z"/>
			</g>
			<g>
				<path style="fill:#08697F;" d="M108.267,266.703c0,0,0.114-0.052,0.327-0.15c0.215-0.091,0.506-0.247,0.913-0.374
					c0.724-0.374,1.891-0.608,3.114-0.906c1.244-0.304,2.731-0.269,4.184-0.164c0.733,0.078,1.465,0.205,2.187,0.371
					c0.716,0.192,1.412,0.443,2.066,0.765c0.663,0.301,1.298,0.682,1.899,1.114c0.585,0.454,1.146,0.939,1.673,1.455
					c0.995,1.061,1.972,2.182,2.527,3.337c0.541,1.135,1.107,2.184,1.274,2.981c0.163,0.395,0.228,0.719,0.295,0.943
					c0.06,0.227,0.092,0.348,0.092,0.348s0.053-0.112,0.151-0.323c0.093-0.214,0.264-0.53,0.403-0.955
					c0.218-0.838,0.608-2.154,0.392-3.731c-0.222-1.542-0.628-3.456-1.773-5.188c-0.546-0.877-1.257-1.697-2.072-2.444
					c-0.834-0.729-1.782-1.365-2.802-1.891c-1.054-0.455-2.148-0.782-3.24-0.963c-1.095-0.155-2.179-0.183-3.203-0.05
					c-2.063,0.224-3.8,1.115-5.133,1.921c-1.353,0.837-2.126,1.967-2.634,2.669c-0.242,0.375-0.379,0.707-0.485,0.914
					C108.32,266.591,108.267,266.703,108.267,266.703z"/>
			</g>
			<g>
				<path style="fill:#08697F;" d="M113.609,345.237c0,0,0.158-0.371,0.435-1.018c0.167-0.649,0.577-1.612,0.656-2.768
					c0.073-1.147,0.248-2.539,0.058-3.987c-0.146-1.466-0.538-2.942-1.083-4.469c-0.637-1.481-1.493-3.028-2.75-4.174
					c-0.594-0.583-1.323-1.06-2.041-1.381c-0.719-0.324-1.429-0.515-2.078-0.648c-1.325-0.273-2.458,0.158-3.107,0.42
					c-0.331,0.182-0.563,0.349-0.711,0.474c-0.145,0.121-0.223,0.186-0.223,0.186s0.417,0.035,1.022,0.278
					c0.608,0.133,1.338,0.668,2.056,1.175c0.768,0.524,1.311,1.391,1.867,2.264c0.524,0.923,1.065,1.967,1.49,3.185
					c0.519,1.176,0.951,2.493,1.441,3.674c0.446,1.2,1.043,2.319,1.381,3.334c0.345,1.007,0.872,1.857,1.094,2.477
					C113.429,344.881,113.609,345.237,113.609,345.237z"/>
			</g>
			<g>
				<path style="fill:#08697F;" d="M113.862,363.577c0,0,0.179-0.439,0.534-1.165c0.26-0.736,0.85-1.727,1.353-2.854
					c0.495-1.142,1.332-2.312,2.159-3.441c0.858-1.101,1.827-2.177,2.977-2.987c1.088-0.886,2.337-1.464,3.538-1.851
					c1.199-0.332,2.522-0.565,3.65-0.378c1.11,0.163,2.184,0.345,2.856,0.692c0.36,0.139,0.655,0.268,0.84,0.375
					c0.194,0.105,0.297,0.161,0.297,0.161s-0.038-0.111-0.111-0.32c-0.069-0.217-0.198-0.516-0.391-0.91
					c-0.458-0.675-1.19-1.822-2.567-2.545c-1.334-0.714-3.137-1.432-5.2-1.272c-2.056,0.097-4.112,0.972-5.818,2.205
					c-1.648,1.312-2.981,2.972-3.747,4.728c-0.812,1.728-0.981,3.491-1.106,4.902c-0.124,1.43,0.217,2.626,0.342,3.417
					C113.701,363.138,113.862,363.577,113.862,363.577z"/>
			</g>
			<g>
				<path style="fill:#08697F;" d="M116.728,329.472c0,0,0.368-0.353,1.035-0.895c0.579-0.601,1.614-1.264,2.646-2.1
					c1.042-0.847,2.419-1.584,3.82-2.322c1.42-0.715,2.932-1.415,4.524-1.841c1.567-0.542,3.171-0.791,4.589-0.864
					c1.419-0.018,2.744,0.079,3.786,0.667c1.015,0.557,1.953,1.203,2.39,1.872c0.528,0.625,0.714,1.117,0.714,1.117
					s0.027-0.124,0.079-0.356c0.047-0.237,0.094-0.591,0.096-1.069c-0.1-0.888-0.366-2.383-1.55-3.65
					c-1.13-1.251-2.993-2.489-5.121-2.805c-2.125-0.4-4.342-0.099-6.388,0.48c-2.039,0.667-3.958,1.662-5.482,2.934
					c-1.567,1.221-2.627,2.774-3.476,4.042c-0.85,1.292-1.167,2.587-1.427,3.415C116.786,328.978,116.728,329.472,116.728,329.472z"
					/>
			</g>
			<g>
				<path style="fill:#08697F;" d="M123.515,317.779c0,0,0.368-0.353,1.035-0.895c0.579-0.601,1.614-1.264,2.646-2.1
					c1.042-0.847,2.419-1.584,3.82-2.322c1.421-0.715,2.932-1.415,4.525-1.841c1.567-0.542,3.171-0.791,4.589-0.864
					c1.419-0.018,2.745,0.079,3.786,0.667c1.015,0.557,1.953,1.203,2.39,1.872c0.528,0.625,0.714,1.117,0.714,1.117
					s0.028-0.124,0.079-0.356c0.047-0.237,0.094-0.591,0.096-1.069c-0.1-0.888-0.366-2.382-1.55-3.65
					c-1.131-1.251-2.994-2.489-5.121-2.805c-2.125-0.399-4.342-0.099-6.388,0.48c-2.039,0.667-3.958,1.662-5.482,2.934
					c-1.567,1.221-2.627,2.774-3.476,4.041c-0.85,1.292-1.167,2.587-1.427,3.415C123.573,317.285,123.515,317.779,123.515,317.779z"
					/>
			</g>
			<g>
				<path style="fill:#08697F;" d="M54.5,280.113c0,0-0.171-0.459-0.47-1.262c-0.371-0.738-0.755-1.911-1.389-3.1
					c-0.643-1.19-1.179-2.664-1.73-4.097c-0.509-1.44-0.962-2.944-1.075-4.438c-0.215-1.476-0.049-2.909,0.288-4.144
					c0.376-1.19,0.996-2.442,1.857-3.231c0.827-0.795,1.695-1.487,2.437-1.741c0.36-0.164,0.672-0.285,0.889-0.334
					c0.222-0.06,0.34-0.091,0.34-0.091s-0.111-0.053-0.318-0.153c-0.212-0.111-0.532-0.229-0.977-0.361
					c-0.849-0.13-2.307-0.321-3.812,0.385c-1.466,0.669-3.21,1.798-4.273,3.758c-1.098,1.911-1.413,4.252-1.22,6.428
					c0.289,2.169,1.031,4.206,2.087,5.835c1.008,1.647,2.333,2.821,3.361,3.822c1.042,1.002,2.156,1.577,2.826,2.066
					C54.072,279.874,54.5,280.113,54.5,280.113z"/>
			</g>
			<g>
				<path style="fill:#08697F;" d="M75.66,323.338c0,0-0.361-0.265-1.039-0.696c-0.694-0.324-1.702-0.963-3.049-1.227
					c-1.329-0.256-2.996-0.577-4.805-0.285c-1.824,0.241-3.709,1.037-5.355,2.222c-1.586,1.262-2.932,2.95-3.538,4.847
					c-0.668,1.888-0.426,3.75-0.075,5.164c0.348,1.458,1.265,2.405,1.794,2.981c0.328,0.266,0.581,0.452,0.77,0.562
					c0.18,0.112,0.276,0.171,0.276,0.171s-0.027-0.109-0.078-0.315c-0.055-0.198-0.102-0.503-0.141-0.869
					c-0.158-0.704-0.051-1.738,0.077-2.787c0.108-1.073,0.665-2.216,1.264-3.205c0.653-0.979,1.487-1.958,2.566-2.714
					c1.023-0.836,2.245-1.441,3.463-1.949c1.237-0.47,2.52-0.954,3.694-1.125c1.161-0.182,2.224-0.494,2.968-0.557
					C75.21,323.401,75.66,323.338,75.66,323.338z"/>
			</g>
			<g>
				<path style="fill:#08697F;" d="M63.511,321.636c0,0-0.361-0.265-1.039-0.696c-0.694-0.324-1.703-0.963-3.049-1.227
					c-1.329-0.256-2.996-0.577-4.805-0.285c-1.824,0.241-3.71,1.037-5.355,2.222c-1.586,1.262-2.932,2.95-3.538,4.847
					c-0.668,1.888-0.426,3.75-0.075,5.164c0.348,1.458,1.265,2.405,1.794,2.981c0.328,0.266,0.581,0.452,0.77,0.562
					c0.18,0.112,0.276,0.171,0.276,0.171s-0.027-0.109-0.078-0.315c-0.055-0.198-0.102-0.503-0.141-0.869
					c-0.158-0.704-0.051-1.738,0.077-2.787c0.108-1.073,0.665-2.216,1.264-3.205c0.653-0.979,1.487-1.958,2.566-2.714
					c1.023-0.836,2.245-1.441,3.463-1.949c1.237-0.47,2.52-0.954,3.694-1.125c1.161-0.182,2.224-0.494,2.968-0.557
					C63.061,321.698,63.511,321.636,63.511,321.636z"/>
			</g>
		</g>
		<g>
			<g>
				<path style="fill:#08697F;" d="M215.494,181.654c0,0,0.167-0.689,0.561-1.891c0.488-1.136,1.106-2.891,2.445-4.65
					c1.324-1.737,3.07-3.794,5.577-5.28c2.48-1.542,5.609-2.434,8.789-2.487c3.176,0.038,6.439,0.979,8.879,2.88
					c2.493,1.866,3.791,4.478,4.462,6.667c0.71,2.238,0.335,4.224,0.064,5.446c-0.212,0.62-0.392,1.081-0.556,1.381
					c-0.149,0.299-0.228,0.459-0.228,0.459s-0.004-0.178-0.011-0.511c0.006-0.326-0.051-0.811-0.144-1.393
					c-0.122-1.174-0.711-2.746-1.629-4.345c-0.897-1.629-2.509-3.142-4.335-4.189c-1.864-1.013-4.149-1.632-6.501-1.577
					c-2.36-0.044-4.722,0.536-6.822,1.42c-2.101,0.92-4.076,2.073-5.567,3.37c-1.492,1.278-2.829,2.399-3.632,3.305
					C215.966,181.114,215.494,181.654,215.494,181.654z"/>
			</g>
			<g>
				<path style="fill:#08697F;" d="M229.719,159.07c0,0,0.074-0.123,0.211-0.354c0.136-0.235,0.345-0.573,0.632-0.996
					c0.631-0.763,1.499-2.004,2.923-3.046c1.412-1.026,3.161-2.241,5.306-2.967c2.131-0.764,4.518-1.186,7.116-1.042
					c1.287,0.129,2.615,0.423,3.859,0.972c1.263,0.549,2.401,1.388,3.255,2.391c0.886,0.98,1.48,2.19,1.742,3.402
					c0.263,1.2,0.178,2.454-0.143,3.45c-0.639,2.048-2.251,2.985-3.223,3.354c-1.073,0.31-1.653,0.106-1.646,0.141
					c0,0,0.122-0.071,0.352-0.205c0.216-0.148,0.519-0.373,0.796-0.734c0.634-0.614,1.062-1.859,1.063-3.081
					c0.036-1.209-0.813-2.421-1.95-3.336c-0.598-0.45-1.254-0.826-1.997-1.081c-0.758-0.265-1.601-0.427-2.497-0.473
					c-1.784-0.196-3.798,0.051-5.633,0.332c-1.834,0.324-3.624,0.668-5.086,1.236c-1.453,0.557-2.791,0.965-3.647,1.409
					c-0.459,0.181-0.816,0.34-1.057,0.455C229.849,159.01,229.719,159.07,229.719,159.07z"/>
			</g>
			<g>
				<path style="fill:#08697F;" d="M205.481,218.096c0.038-0.252,4.003-25.491,15.609-53.388
					c10.743-25.823,30.421-59.285,63.154-72.056l0.708,1.813c-61.501,23.995-77.393,122.93-77.546,123.926L205.481,218.096z"/>
			</g>
			<g>
				<path style="fill:#08697F;" d="M209.666,198.908c0.118-0.421,11.599-42.326-8.959-64.784l1.436-1.314
					c21.293,23.261,9.518,66.195,9.396,66.625L209.666,198.908z"/>
			</g>
			<g>
				<path style="fill:#08697F;" d="M215.684,178.972c0.144-0.413,14.863-41.199,53.479-39.97l-0.063,1.946
					c-37.174-1.183-51.44,38.268-51.579,38.667L215.684,178.972z"/>
			</g>
			<g>
				<path style="fill:#08697F;" d="M225.325,155.179c0.217-0.543,21.322-54.622-10.444-71.128l0.896-1.728
					c33.346,17.313,11.58,73.016,11.356,73.577L225.325,155.179z"/>
			</g>
			<g>
				<path style="fill:#08697F;" d="M259.711,107.932c0,0,0.366-0.382,1.052-1.028c0.728-0.546,1.732-1.502,3.2-2.187
					c1.453-0.672,3.261-1.501,5.409-1.719c2.152-0.272,4.552,0.054,6.784,0.939c2.193,0.97,4.227,2.56,5.403,4.628
					c1.237,2.058,1.344,4.293,1.17,6.021c-0.161,1.782-1.091,3.042-1.656,3.782c-0.352,0.353-0.627,0.6-0.84,0.747
					c-0.2,0.149-0.307,0.229-0.307,0.229s0.036-0.128,0.105-0.367c0.075-0.23,0.139-0.588,0.193-1.017
					c0.182-0.84,0.058-2.055-0.205-3.311c-0.238-1.281-1.032-2.611-1.954-3.676c-0.976-1.051-2.259-2.014-3.783-2.598
					c-1.491-0.68-3.162-0.997-4.785-1.145c-1.637-0.109-3.306-0.158-4.736,0.066c-1.422,0.211-2.734,0.268-3.609,0.453
					C260.24,107.848,259.711,107.932,259.711,107.932z"/>
			</g>
			<g>
				<path style="fill:#08697F;" d="M279.801,95.61c0,0,0.366-0.382,1.052-1.028c0.728-0.546,1.732-1.502,3.2-2.187
					c1.453-0.672,3.261-1.501,5.41-1.719c2.152-0.272,4.552,0.054,6.784,0.939c2.194,0.97,4.227,2.56,5.404,4.627
					c1.237,2.058,1.344,4.293,1.17,6.021c-0.161,1.782-1.091,3.042-1.656,3.782c-0.352,0.353-0.628,0.6-0.84,0.747
					c-0.2,0.149-0.307,0.229-0.307,0.229s0.036-0.128,0.105-0.367c0.075-0.23,0.139-0.588,0.193-1.017
					c0.182-0.84,0.058-2.055-0.205-3.31c-0.238-1.281-1.032-2.611-1.954-3.676c-0.976-1.051-2.259-2.014-3.783-2.598
					c-1.491-0.679-3.162-0.997-4.785-1.145c-1.637-0.109-3.306-0.158-4.736,0.066c-1.422,0.211-2.735,0.268-3.609,0.453
					C280.329,95.526,279.801,95.61,279.801,95.61z"/>
			</g>
			<g>
				<path style="fill:#08697F;" d="M238.888,132.331c0,0,0.152-0.444,0.503-1.207c0.417-0.688,0.952-1.82,1.979-2.821
					c1.02-0.983,2.276-2.191,3.922-3.024c1.617-0.879,3.528-1.456,5.572-1.697c2.035-0.14,4.245,0.11,6.085,1.082
					c1.918,0.916,3.113,2.597,3.786,3.985c0.721,1.438,0.57,2.85,0.442,3.672c-0.115,0.429-0.237,0.74-0.341,0.943
					c-0.098,0.199-0.15,0.305-0.15,0.305s-0.033-0.112-0.094-0.324c-0.057-0.206-0.173-0.503-0.353-0.839
					c-0.253-0.701-0.968-1.491-1.748-2.237c-0.794-0.787-1.969-1.276-3.133-1.571c-1.222-0.278-2.602-0.401-4.063-0.218
					c-1.46,0.081-2.975,0.451-4.405,0.82c-1.412,0.405-2.827,0.763-3.956,1.304c-1.121,0.529-2.213,0.887-2.886,1.281
					C239.303,132.102,238.888,132.331,238.888,132.331z"/>
			</g>
			<g>
				<path style="fill:#08697F;" d="M233.501,114.316c0,0-0.132-0.455-0.318-1.276c-0.088-0.804-0.369-2.01-0.26-3.417
					c0.117-1.395,0.202-3.089,0.712-4.803c0.48-1.729,1.228-3.455,2.27-5.19c1.117-1.655,2.609-3.322,4.55-4.227
					c0.915-0.472,2.03-0.758,2.996-0.772c0.98-0.027,1.871,0.133,2.656,0.353c1.607,0.442,2.553,1.609,3.007,2.329
					c0.207,0.406,0.312,0.732,0.358,0.958c0.048,0.219,0.073,0.336,0.073,0.336s-0.096-0.069-0.276-0.199
					c-0.171-0.127-0.45-0.285-0.805-0.414c-0.648-0.356-1.694-0.409-2.747-0.329c-0.534,0.029-1.105,0.19-1.629,0.435
					c-0.541,0.25-0.948,0.562-1.461,0.947c-0.947,0.791-1.877,1.857-2.669,3.186c-0.87,1.265-1.622,2.781-2.384,4.14
					c-0.711,1.388-1.519,2.681-2.024,3.878c-0.507,1.188-1.146,2.177-1.443,2.913C233.708,113.886,233.501,114.316,233.501,114.316z
					"/>
			</g>
			<g>
				<path style="fill:#08697F;" d="M231.234,135.484c0,0-0.183-0.344-0.503-0.947c-0.23-0.6-0.762-1.42-1.142-2.349
					c-0.374-0.941-1.035-1.911-1.62-2.835c-0.617-0.895-1.278-1.772-2.084-2.436c-0.735-0.735-1.598-1.207-2.405-1.556
					c-0.794-0.292-1.796-0.554-2.646-0.41c-0.83,0.115-1.697,0.254-2.213,0.577c-0.285,0.129-0.521,0.257-0.663,0.361
					c-0.152,0.104-0.232,0.16-0.232,0.16s0.007-0.098,0.02-0.282c0.009-0.192,0.054-0.463,0.142-0.829
					c0.261-0.628,0.725-1.744,1.857-2.468c1.085-0.709,2.621-1.452,4.454-1.29c1.816,0.104,3.557,0.993,4.915,2.163
					c1.295,1.241,2.262,2.753,2.72,4.282c0.503,1.503,0.435,2.961,0.417,4.11c-0.024,1.165-0.432,2.115-0.589,2.751
					C231.389,135.121,231.234,135.484,231.234,135.484z"/>
			</g>
			<g>
				<path style="fill:#08697F;" d="M229.093,99.352c0,0-0.084-0.092-0.242-0.266c-0.162-0.168-0.368-0.426-0.693-0.702
					c-0.519-0.628-1.5-1.301-2.509-2.056c-1.025-0.768-2.406-1.32-3.784-1.793c-0.705-0.216-1.428-0.386-2.157-0.517
					c-0.734-0.104-1.472-0.147-2.2-0.107c-0.728,0.016-1.461,0.118-2.184,0.279c-0.717,0.188-1.423,0.414-2.11,0.682
					c-1.331,0.585-2.671,1.233-3.634,2.077c-0.943,0.832-1.875,1.574-2.342,2.242c-0.305,0.3-0.492,0.572-0.641,0.752
					c-0.144,0.185-0.221,0.284-0.221,0.284s-0.004-0.124-0.012-0.357c-0.002-0.233-0.035-0.591,0.004-1.036
					c0.129-0.856,0.287-2.22,1.104-3.585c0.81-1.331,1.934-2.932,3.667-4.076c0.847-0.593,1.823-1.068,2.865-1.435
					c1.053-0.343,2.175-0.556,3.32-0.64c1.148-0.005,2.282,0.124,3.358,0.386c1.067,0.287,2.076,0.687,2.966,1.211
					c1.81,1.016,3.058,2.517,3.967,3.782c0.916,1.3,1.183,2.644,1.375,3.489c0.076,0.44,0.071,0.799,0.088,1.031
					C229.088,99.228,229.093,99.352,229.093,99.352z"/>
			</g>
			<g>
				<path style="fill:#08697F;" d="M218.951,85.788c0,0-0.114-0.052-0.327-0.15c-0.216-0.091-0.506-0.247-0.914-0.374
					c-0.724-0.374-1.891-0.608-3.114-0.906c-1.244-0.304-2.731-0.269-4.184-0.164c-0.734,0.078-1.465,0.205-2.187,0.371
					c-0.716,0.192-1.412,0.443-2.066,0.765c-0.664,0.301-1.298,0.682-1.899,1.114c-0.585,0.454-1.146,0.939-1.673,1.455
					c-0.995,1.061-1.973,2.182-2.527,3.337c-0.541,1.135-1.107,2.183-1.274,2.981c-0.163,0.396-0.228,0.719-0.295,0.944
					c-0.06,0.227-0.092,0.348-0.092,0.348s-0.053-0.112-0.151-0.323c-0.093-0.214-0.264-0.53-0.403-0.955
					c-0.218-0.838-0.608-2.155-0.392-3.731c0.222-1.542,0.628-3.456,1.773-5.188c0.546-0.877,1.257-1.697,2.072-2.444
					c0.834-0.729,1.782-1.365,2.802-1.891c1.054-0.455,2.148-0.782,3.24-0.963c1.094-0.154,2.179-0.183,3.203-0.05
					c2.063,0.224,3.8,1.115,5.133,1.921c1.353,0.837,2.126,1.967,2.634,2.669c0.242,0.375,0.379,0.707,0.485,0.914
					C218.898,85.676,218.951,85.788,218.951,85.788z"/>
			</g>
			<g>
				<path style="fill:#08697F;" d="M213.609,164.322c0,0-0.158-0.371-0.435-1.019c-0.167-0.649-0.577-1.612-0.656-2.768
					c-0.073-1.147-0.247-2.539-0.057-3.987c0.146-1.466,0.538-2.942,1.083-4.469c0.637-1.481,1.493-3.028,2.75-4.174
					c0.594-0.583,1.323-1.06,2.041-1.381c0.719-0.324,1.429-0.515,2.078-0.648c1.325-0.273,2.458,0.158,3.107,0.42
					c0.332,0.182,0.563,0.349,0.712,0.474c0.145,0.121,0.222,0.185,0.222,0.185s-0.417,0.035-1.022,0.278
					c-0.608,0.133-1.338,0.668-2.056,1.175c-0.767,0.524-1.311,1.391-1.867,2.264c-0.524,0.923-1.065,1.967-1.49,3.185
					c-0.519,1.176-0.952,2.493-1.441,3.674c-0.446,1.2-1.044,2.319-1.381,3.334c-0.345,1.007-0.872,1.857-1.094,2.477
					C213.789,163.966,213.609,164.322,213.609,164.322z"/>
			</g>
			<g>
				<path style="fill:#08697F;" d="M213.356,182.662c0,0-0.179-0.439-0.534-1.165c-0.26-0.736-0.85-1.727-1.353-2.854
					c-0.495-1.142-1.332-2.313-2.159-3.441c-0.858-1.101-1.827-2.177-2.977-2.987c-1.088-0.886-2.337-1.464-3.538-1.851
					c-1.199-0.331-2.522-0.565-3.65-0.378c-1.11,0.163-2.184,0.345-2.857,0.692c-0.36,0.139-0.655,0.268-0.84,0.375
					c-0.194,0.105-0.297,0.161-0.297,0.161s0.038-0.111,0.111-0.32c0.069-0.217,0.198-0.517,0.391-0.91
					c0.458-0.675,1.19-1.823,2.567-2.545c1.334-0.714,3.137-1.432,5.2-1.272c2.056,0.097,4.112,0.972,5.818,2.205
					c1.648,1.312,2.981,2.972,3.747,4.728c0.812,1.729,0.981,3.492,1.106,4.902c0.124,1.43-0.217,2.626-0.342,3.417
					C213.518,182.223,213.356,182.662,213.356,182.662z"/>
			</g>
			<g>
				<path style="fill:#08697F;" d="M210.49,148.557c0,0-0.368-0.353-1.035-0.895c-0.579-0.601-1.614-1.264-2.646-2.1
					c-1.042-0.847-2.419-1.584-3.82-2.322c-1.42-0.715-2.932-1.415-4.524-1.841c-1.567-0.542-3.171-0.791-4.589-0.864
					c-1.419-0.018-2.744,0.078-3.787,0.667c-1.014,0.557-1.953,1.204-2.39,1.872c-0.528,0.625-0.714,1.117-0.714,1.117
					s-0.028-0.124-0.079-0.356c-0.047-0.237-0.094-0.591-0.096-1.069c0.1-0.888,0.366-2.382,1.55-3.65
					c1.131-1.251,2.994-2.489,5.121-2.805c2.125-0.399,4.342-0.099,6.388,0.48c2.039,0.667,3.958,1.662,5.482,2.934
					c1.567,1.221,2.627,2.774,3.476,4.042c0.85,1.292,1.167,2.587,1.427,3.415C210.432,148.062,210.49,148.557,210.49,148.557z"/>
			</g>
			<g>
				<path style="fill:#08697F;" d="M203.703,136.864c0,0-0.368-0.353-1.035-0.895c-0.579-0.601-1.614-1.264-2.646-2.1
					c-1.042-0.848-2.419-1.584-3.82-2.322c-1.42-0.715-2.932-1.415-4.525-1.841c-1.567-0.542-3.17-0.791-4.589-0.864
					c-1.419-0.018-2.744,0.078-3.787,0.667c-1.015,0.557-1.953,1.203-2.39,1.872c-0.528,0.625-0.714,1.117-0.714,1.117
					s-0.027-0.124-0.079-0.356c-0.047-0.237-0.094-0.591-0.096-1.069c0.1-0.888,0.366-2.382,1.55-3.65
					c1.131-1.251,2.994-2.489,5.121-2.805c2.125-0.399,4.342-0.099,6.388,0.481c2.039,0.667,3.958,1.662,5.482,2.934
					c1.567,1.221,2.627,2.774,3.476,4.042c0.85,1.292,1.166,2.587,1.427,3.415C203.645,136.37,203.703,136.864,203.703,136.864z"/>
			</g>
			<g>
				<path style="fill:#08697F;" d="M272.718,99.198c0,0,0.171-0.459,0.47-1.262c0.371-0.738,0.755-1.911,1.389-3.1
					c0.643-1.19,1.179-2.664,1.73-4.097c0.508-1.44,0.961-2.944,1.075-4.438c0.215-1.476,0.049-2.909-0.288-4.144
					c-0.377-1.19-0.996-2.442-1.857-3.231c-0.827-0.795-1.695-1.487-2.437-1.741c-0.359-0.164-0.672-0.285-0.889-0.334
					c-0.222-0.059-0.34-0.091-0.34-0.091s0.111-0.053,0.318-0.153c0.211-0.111,0.532-0.229,0.977-0.361
					c0.849-0.13,2.307-0.321,3.812,0.386c1.466,0.669,3.21,1.798,4.273,3.758c1.098,1.91,1.413,4.252,1.22,6.428
					c-0.289,2.169-1.031,4.206-2.087,5.835c-1.008,1.647-2.333,2.821-3.361,3.822c-1.043,1.002-2.156,1.577-2.826,2.066
					C273.146,98.959,272.718,99.198,272.718,99.198z"/>
			</g>
			<g>
				<path style="fill:#08697F;" d="M251.558,142.423c0,0,0.361-0.265,1.039-0.696c0.694-0.324,1.703-0.963,3.049-1.226
					c1.329-0.256,2.996-0.577,4.805-0.285c1.824,0.241,3.71,1.037,5.355,2.222c1.586,1.262,2.932,2.95,3.538,4.847
					c0.668,1.889,0.426,3.75,0.075,5.164c-0.348,1.458-1.265,2.405-1.794,2.981c-0.328,0.266-0.581,0.452-0.769,0.562
					c-0.18,0.112-0.276,0.171-0.276,0.171s0.027-0.109,0.078-0.314c0.055-0.198,0.102-0.503,0.141-0.869
					c0.158-0.704,0.051-1.738-0.077-2.787c-0.108-1.073-0.665-2.215-1.264-3.205c-0.653-0.979-1.487-1.958-2.566-2.714
					c-1.023-0.836-2.245-1.441-3.463-1.949c-1.237-0.47-2.521-0.954-3.694-1.125c-1.161-0.182-2.225-0.494-2.968-0.557
					C252.009,142.486,251.558,142.423,251.558,142.423z"/>
			</g>
			<g>
				<path style="fill:#08697F;" d="M263.707,140.721c0,0,0.361-0.265,1.039-0.696c0.694-0.324,1.702-0.963,3.049-1.226
					c1.329-0.256,2.996-0.577,4.805-0.285c1.824,0.241,3.71,1.037,5.355,2.222c1.586,1.262,2.933,2.95,3.538,4.847
					c0.668,1.889,0.426,3.75,0.075,5.164c-0.348,1.458-1.265,2.405-1.794,2.981c-0.328,0.266-0.581,0.452-0.77,0.562
					c-0.18,0.112-0.276,0.171-0.276,0.171s0.027-0.109,0.078-0.314c0.055-0.198,0.102-0.503,0.141-0.869
					c0.158-0.704,0.051-1.738-0.077-2.787c-0.108-1.073-0.665-2.216-1.264-3.205c-0.653-0.979-1.487-1.958-2.566-2.714
					c-1.023-0.837-2.245-1.441-3.463-1.949c-1.237-0.47-2.52-0.954-3.694-1.125c-1.161-0.182-2.224-0.494-2.968-0.557
					C264.157,140.783,263.707,140.721,263.707,140.721z"/>
			</g>
		</g>
		<g>
			<g>
				<path style="fill:#08697F;" d="M270.112,334.36c0,0,0.167-0.688,0.561-1.891c0.488-1.136,1.106-2.891,2.445-4.65
					c1.324-1.737,3.07-3.794,5.576-5.28c2.48-1.541,5.609-2.434,8.789-2.487c3.176,0.038,6.439,0.979,8.879,2.88
					c2.493,1.866,3.791,4.478,4.462,6.667c0.71,2.238,0.335,4.224,0.064,5.446c-0.212,0.62-0.392,1.08-0.556,1.381
					c-0.149,0.299-0.228,0.459-0.228,0.459s-0.004-0.178-0.011-0.511c0.007-0.326-0.051-0.811-0.144-1.394
					c-0.122-1.174-0.711-2.746-1.629-4.345c-0.897-1.629-2.509-3.142-4.335-4.189c-1.864-1.013-4.149-1.632-6.501-1.577
					c-2.36-0.044-4.722,0.535-6.822,1.42c-2.101,0.92-4.076,2.073-5.567,3.37c-1.493,1.278-2.829,2.399-3.632,3.305
					C270.585,333.82,270.112,334.36,270.112,334.36z"/>
			</g>
			<g>
				<path style="fill:#08697F;" d="M284.337,311.776c0,0,0.074-0.123,0.211-0.354c0.137-0.234,0.345-0.573,0.632-0.996
					c0.631-0.763,1.499-2.004,2.923-3.047c1.412-1.026,3.16-2.241,5.306-2.967c2.131-0.764,4.518-1.186,7.116-1.042
					c1.287,0.129,2.615,0.423,3.859,0.972c1.263,0.549,2.401,1.388,3.255,2.391c0.886,0.98,1.48,2.19,1.742,3.402
					c0.263,1.199,0.178,2.454-0.143,3.45c-0.638,2.048-2.251,2.985-3.223,3.354c-1.073,0.31-1.653,0.106-1.646,0.141
					c0,0,0.122-0.071,0.352-0.205c0.215-0.148,0.519-0.373,0.796-0.734c0.634-0.614,1.062-1.859,1.063-3.081
					c0.036-1.209-0.813-2.421-1.95-3.336c-0.598-0.45-1.254-0.826-1.997-1.081c-0.758-0.265-1.601-0.427-2.497-0.473
					c-1.784-0.196-3.798,0.051-5.633,0.332c-1.834,0.324-3.624,0.668-5.086,1.236c-1.454,0.557-2.791,0.965-3.647,1.409
					c-0.459,0.181-0.816,0.34-1.057,0.455C284.468,311.716,284.337,311.776,284.337,311.776z"/>
			</g>
			<g>
				<path style="fill:#08697F;" d="M260.099,370.802c0.039-0.252,4.003-25.491,15.609-53.388
					c10.743-25.823,30.421-59.286,63.154-72.056l0.708,1.813c-61.501,23.995-77.393,122.931-77.546,123.926L260.099,370.802z"/>
			</g>
			<g>
				<path style="fill:#08697F;" d="M264.285,351.614c0.118-0.421,11.599-42.326-8.959-64.784l1.436-1.314
					c21.293,23.261,9.518,66.194,9.396,66.625L264.285,351.614z"/>
			</g>
			<g>
				<path style="fill:#08697F;" d="M270.302,331.678c0.144-0.413,14.863-41.199,53.479-39.971l-0.063,1.946
					c-37.174-1.183-51.44,38.268-51.579,38.667L270.302,331.678z"/>
			</g>
			<g>
				<path style="fill:#08697F;" d="M279.944,307.885c0.217-0.543,21.322-54.622-10.444-71.128l0.896-1.728
					c33.346,17.313,11.58,73.016,11.356,73.577L279.944,307.885z"/>
			</g>
			<g>
				<path style="fill:#08697F;" d="M314.33,260.638c0,0,0.366-0.382,1.052-1.028c0.728-0.546,1.732-1.502,3.2-2.187
					c1.453-0.672,3.261-1.501,5.409-1.719c2.152-0.272,4.552,0.054,6.784,0.939c2.194,0.97,4.227,2.56,5.404,4.628
					c1.237,2.057,1.344,4.293,1.17,6.021c-0.161,1.782-1.09,3.042-1.656,3.782c-0.352,0.353-0.627,0.6-0.839,0.748
					c-0.2,0.149-0.307,0.229-0.307,0.229s0.036-0.128,0.105-0.367c0.075-0.23,0.139-0.588,0.193-1.017
					c0.182-0.84,0.058-2.055-0.205-3.31c-0.238-1.281-1.032-2.611-1.954-3.677c-0.976-1.051-2.259-2.014-3.783-2.598
					c-1.491-0.68-3.162-0.997-4.785-1.145c-1.637-0.109-3.306-0.158-4.736,0.066c-1.422,0.211-2.735,0.268-3.609,0.453
					C314.858,260.554,314.33,260.638,314.33,260.638z"/>
			</g>
			<g>
				<path style="fill:#08697F;" d="M334.419,248.316c0,0,0.366-0.382,1.052-1.028c0.728-0.546,1.732-1.502,3.2-2.187
					c1.453-0.672,3.261-1.501,5.41-1.719c2.152-0.272,4.552,0.054,6.784,0.939c2.193,0.97,4.227,2.56,5.404,4.628
					c1.237,2.057,1.344,4.293,1.17,6.021c-0.161,1.782-1.091,3.042-1.656,3.783c-0.352,0.353-0.628,0.6-0.84,0.747
					c-0.2,0.149-0.307,0.229-0.307,0.229s0.036-0.128,0.105-0.367c0.075-0.23,0.139-0.588,0.193-1.017
					c0.182-0.84,0.058-2.055-0.205-3.311c-0.238-1.281-1.032-2.611-1.954-3.676c-0.976-1.051-2.259-2.014-3.783-2.598
					c-1.491-0.68-3.162-0.997-4.785-1.145c-1.637-0.109-3.306-0.158-4.736,0.066c-1.422,0.211-2.735,0.268-3.609,0.453
					C334.948,248.232,334.419,248.316,334.419,248.316z"/>
			</g>
			<g>
				<path style="fill:#08697F;" d="M293.506,285.037c0,0,0.152-0.444,0.503-1.207c0.417-0.688,0.951-1.82,1.979-2.821
					c1.02-0.983,2.276-2.191,3.922-3.024c1.617-0.878,3.528-1.456,5.572-1.697c2.035-0.14,4.245,0.11,6.085,1.082
					c1.918,0.916,3.113,2.597,3.786,3.985c0.721,1.438,0.57,2.85,0.442,3.672c-0.115,0.428-0.237,0.74-0.341,0.943
					c-0.098,0.199-0.15,0.305-0.15,0.305s-0.033-0.113-0.094-0.324c-0.057-0.206-0.173-0.503-0.353-0.839
					c-0.253-0.701-0.968-1.491-1.748-2.237c-0.794-0.787-1.969-1.276-3.133-1.571c-1.222-0.278-2.602-0.401-4.063-0.218
					c-1.46,0.081-2.975,0.451-4.405,0.82c-1.412,0.405-2.827,0.763-3.956,1.304c-1.121,0.529-2.213,0.887-2.886,1.281
					C293.922,284.808,293.506,285.037,293.506,285.037z"/>
			</g>
			<g>
				<path style="fill:#08697F;" d="M288.12,267.022c0,0-0.132-0.455-0.318-1.276c-0.088-0.804-0.369-2.01-0.26-3.417
					c0.117-1.395,0.202-3.089,0.711-4.803c0.48-1.729,1.228-3.455,2.27-5.19c1.117-1.655,2.61-3.322,4.55-4.227
					c0.915-0.472,2.03-0.758,2.996-0.772c0.98-0.027,1.871,0.133,2.656,0.353c1.607,0.442,2.552,1.609,3.007,2.329
					c0.207,0.406,0.312,0.732,0.358,0.959c0.048,0.219,0.073,0.336,0.073,0.336s-0.096-0.069-0.276-0.199
					c-0.171-0.127-0.451-0.285-0.805-0.415c-0.648-0.356-1.694-0.409-2.747-0.329c-0.534,0.029-1.105,0.19-1.629,0.435
					c-0.541,0.25-0.948,0.562-1.461,0.947c-0.947,0.791-1.877,1.857-2.669,3.186c-0.87,1.264-1.622,2.781-2.384,4.14
					c-0.711,1.389-1.519,2.681-2.024,3.878c-0.507,1.188-1.146,2.177-1.443,2.913C288.326,266.592,288.12,267.022,288.12,267.022z"
					/>
			</g>
			<g>
				<path style="fill:#08697F;" d="M285.852,288.19c0,0-0.183-0.345-0.503-0.947c-0.23-0.6-0.762-1.42-1.142-2.349
					c-0.374-0.941-1.035-1.911-1.62-2.835c-0.617-0.895-1.278-1.772-2.084-2.436c-0.735-0.735-1.598-1.207-2.405-1.556
					c-0.794-0.292-1.796-0.554-2.646-0.41c-0.83,0.115-1.697,0.254-2.213,0.577c-0.285,0.129-0.521,0.256-0.663,0.361
					c-0.151,0.105-0.232,0.16-0.232,0.16s0.007-0.098,0.02-0.282c0.009-0.192,0.054-0.463,0.142-0.829
					c0.261-0.628,0.725-1.744,1.857-2.468c1.085-0.709,2.621-1.453,4.454-1.29c1.816,0.104,3.556,0.993,4.914,2.163
					c1.295,1.241,2.262,2.753,2.72,4.282c0.503,1.503,0.435,2.961,0.417,4.11c-0.024,1.165-0.432,2.115-0.589,2.751
					C286.008,287.827,285.852,288.19,285.852,288.19z"/>
			</g>
			<g>
				<path style="fill:#08697F;" d="M283.711,252.058c0,0-0.084-0.093-0.242-0.266c-0.163-0.169-0.368-0.426-0.694-0.703
					c-0.519-0.628-1.5-1.301-2.508-2.056c-1.025-0.768-2.406-1.32-3.784-1.793c-0.705-0.216-1.427-0.386-2.157-0.517
					c-0.734-0.104-1.472-0.147-2.2-0.107c-0.728,0.016-1.461,0.118-2.184,0.279c-0.717,0.188-1.423,0.414-2.11,0.682
					c-1.332,0.585-2.671,1.233-3.634,2.077c-0.943,0.832-1.875,1.574-2.342,2.241c-0.305,0.3-0.492,0.572-0.642,0.752
					c-0.144,0.185-0.221,0.284-0.221,0.284s-0.004-0.124-0.012-0.357c-0.001-0.233-0.035-0.591,0.004-1.037
					c0.129-0.856,0.287-2.22,1.104-3.585c0.81-1.331,1.934-2.932,3.667-4.076c0.847-0.593,1.823-1.068,2.865-1.435
					c1.053-0.343,2.175-0.556,3.32-0.639c1.148-0.004,2.282,0.124,3.358,0.386c1.067,0.288,2.076,0.687,2.966,1.211
					c1.81,1.016,3.058,2.517,3.968,3.782c0.916,1.301,1.183,2.644,1.375,3.489c0.076,0.44,0.071,0.799,0.088,1.031
					C283.706,251.934,283.711,252.058,283.711,252.058z"/>
			</g>
			<g>
				<path style="fill:#08697F;" d="M273.57,238.494c0,0-0.114-0.052-0.327-0.15c-0.216-0.091-0.506-0.247-0.914-0.374
					c-0.724-0.374-1.891-0.608-3.114-0.906c-1.244-0.304-2.731-0.27-4.184-0.164c-0.733,0.078-1.465,0.205-2.187,0.371
					c-0.716,0.192-1.412,0.443-2.065,0.765c-0.664,0.301-1.298,0.682-1.899,1.114c-0.585,0.454-1.146,0.939-1.673,1.455
					c-0.995,1.061-1.972,2.182-2.527,3.337c-0.541,1.135-1.107,2.184-1.274,2.981c-0.163,0.396-0.228,0.719-0.295,0.944
					c-0.06,0.227-0.092,0.348-0.092,0.348s-0.053-0.112-0.151-0.323c-0.093-0.214-0.264-0.53-0.403-0.955
					c-0.218-0.838-0.608-2.154-0.392-3.731c0.222-1.542,0.628-3.456,1.773-5.188c0.546-0.878,1.257-1.697,2.072-2.444
					c0.834-0.729,1.782-1.365,2.802-1.891c1.054-0.455,2.148-0.782,3.24-0.963c1.095-0.154,2.179-0.183,3.203-0.05
					c2.063,0.224,3.8,1.115,5.133,1.921c1.353,0.837,2.126,1.967,2.634,2.669c0.242,0.375,0.379,0.707,0.485,0.914
					C273.516,238.382,273.57,238.494,273.57,238.494z"/>
			</g>
			<g>
				<path style="fill:#08697F;" d="M268.228,317.028c0,0-0.158-0.371-0.435-1.018c-0.167-0.649-0.577-1.612-0.656-2.767
					c-0.073-1.147-0.247-2.539-0.058-3.987c0.146-1.466,0.538-2.942,1.083-4.469c0.637-1.481,1.493-3.028,2.75-4.174
					c0.594-0.583,1.323-1.06,2.041-1.381c0.719-0.324,1.429-0.515,2.078-0.648c1.325-0.273,2.458,0.158,3.107,0.42
					c0.331,0.182,0.563,0.349,0.711,0.474c0.145,0.121,0.222,0.185,0.222,0.185s-0.417,0.035-1.022,0.278
					c-0.608,0.133-1.338,0.668-2.056,1.175c-0.767,0.524-1.311,1.391-1.867,2.264c-0.524,0.923-1.065,1.967-1.49,3.185
					c-0.519,1.176-0.951,2.493-1.441,3.674c-0.446,1.2-1.043,2.319-1.38,3.334c-0.345,1.007-0.872,1.857-1.094,2.477
					C268.408,316.672,268.228,317.028,268.228,317.028z"/>
			</g>
			<g>
				<path style="fill:#08697F;" d="M267.975,335.368c0,0-0.179-0.439-0.534-1.165c-0.26-0.736-0.85-1.727-1.353-2.854
					c-0.495-1.142-1.332-2.312-2.159-3.441c-0.858-1.1-1.827-2.177-2.977-2.987c-1.088-0.886-2.337-1.464-3.538-1.851
					c-1.199-0.332-2.522-0.565-3.65-0.378c-1.11,0.163-2.184,0.345-2.857,0.692c-0.36,0.139-0.655,0.268-0.84,0.375
					c-0.194,0.105-0.297,0.161-0.297,0.161s0.038-0.111,0.111-0.32c0.069-0.217,0.198-0.517,0.39-0.91
					c0.458-0.675,1.191-1.823,2.567-2.545c1.334-0.714,3.137-1.432,5.2-1.272c2.056,0.097,4.112,0.972,5.818,2.205
					c1.648,1.312,2.981,2.972,3.747,4.728c0.812,1.728,0.981,3.492,1.107,4.902c0.124,1.43-0.217,2.626-0.342,3.417
					C268.136,334.929,267.975,335.368,267.975,335.368z"/>
			</g>
			<g>
				<path style="fill:#08697F;" d="M265.109,301.263c0,0-0.368-0.353-1.035-0.895c-0.579-0.601-1.614-1.263-2.646-2.1
					c-1.042-0.848-2.419-1.584-3.82-2.322c-1.42-0.715-2.932-1.415-4.524-1.841c-1.567-0.542-3.171-0.791-4.589-0.864
					c-1.419-0.018-2.744,0.078-3.786,0.667c-1.015,0.557-1.953,1.203-2.39,1.872c-0.528,0.625-0.714,1.117-0.714,1.117
					s-0.028-0.124-0.08-0.356c-0.047-0.237-0.094-0.591-0.095-1.069c0.1-0.888,0.366-2.383,1.55-3.65
					c1.13-1.251,2.994-2.489,5.121-2.805c2.125-0.399,4.342-0.099,6.388,0.48c2.039,0.667,3.958,1.662,5.482,2.934
					c1.566,1.221,2.627,2.774,3.476,4.041c0.85,1.292,1.167,2.588,1.427,3.415C265.051,300.768,265.109,301.263,265.109,301.263z"/>
			</g>
			<g>
				<path style="fill:#08697F;" d="M258.322,289.57c0,0-0.368-0.353-1.035-0.895c-0.579-0.601-1.613-1.264-2.646-2.1
					c-1.042-0.847-2.419-1.584-3.82-2.322c-1.421-0.715-2.932-1.415-4.525-1.841c-1.567-0.542-3.17-0.791-4.589-0.864
					c-1.419-0.018-2.744,0.078-3.786,0.667c-1.015,0.557-1.953,1.204-2.39,1.872c-0.528,0.625-0.714,1.117-0.714,1.117
					s-0.028-0.124-0.079-0.356c-0.047-0.237-0.094-0.591-0.096-1.069c0.1-0.888,0.366-2.382,1.55-3.65
					c1.13-1.251,2.994-2.489,5.121-2.805c2.125-0.399,4.342-0.099,6.388,0.481c2.039,0.667,3.958,1.662,5.482,2.934
					c1.567,1.221,2.627,2.774,3.476,4.041c0.85,1.292,1.167,2.588,1.427,3.415C258.264,289.076,258.322,289.57,258.322,289.57z"/>
			</g>
			<g>
				<path style="fill:#08697F;" d="M327.336,251.904c0,0,0.171-0.459,0.47-1.262c0.371-0.738,0.755-1.911,1.389-3.1
					c0.643-1.19,1.179-2.664,1.73-4.097c0.509-1.44,0.962-2.944,1.075-4.438c0.215-1.476,0.049-2.909-0.288-4.144
					c-0.376-1.19-0.996-2.442-1.857-3.231c-0.827-0.795-1.695-1.487-2.437-1.741c-0.359-0.164-0.672-0.285-0.889-0.334
					c-0.222-0.059-0.34-0.091-0.34-0.091s0.111-0.053,0.318-0.153c0.211-0.111,0.532-0.229,0.977-0.361
					c0.849-0.13,2.307-0.321,3.812,0.386c1.466,0.669,3.21,1.798,4.273,3.758c1.098,1.91,1.413,4.252,1.22,6.428
					c-0.289,2.169-1.031,4.206-2.087,5.835c-1.008,1.647-2.333,2.821-3.361,3.822c-1.043,1.002-2.156,1.577-2.826,2.066
					C327.765,251.665,327.336,251.904,327.336,251.904z"/>
			</g>
			<g>
				<path style="fill:#08697F;" d="M306.177,295.129c0,0,0.361-0.265,1.039-0.696c0.694-0.324,1.703-0.963,3.049-1.226
					c1.328-0.257,2.996-0.577,4.805-0.285c1.824,0.241,3.71,1.037,5.355,2.222c1.586,1.262,2.932,2.95,3.538,4.847
					c0.668,1.888,0.426,3.75,0.075,5.164c-0.348,1.458-1.265,2.405-1.794,2.981c-0.328,0.266-0.581,0.452-0.769,0.562
					c-0.18,0.112-0.276,0.171-0.276,0.171s0.027-0.109,0.078-0.315c0.055-0.198,0.102-0.503,0.141-0.869
					c0.158-0.704,0.051-1.738-0.077-2.787c-0.108-1.073-0.665-2.216-1.264-3.205c-0.653-0.979-1.487-1.958-2.566-2.714
					c-1.022-0.837-2.245-1.441-3.463-1.949c-1.237-0.47-2.52-0.954-3.694-1.125c-1.161-0.182-2.224-0.494-2.968-0.557
					C306.627,295.191,306.177,295.129,306.177,295.129z"/>
			</g>
			<g>
				<path style="fill:#08697F;" d="M318.325,293.427c0,0,0.361-0.265,1.039-0.696c0.694-0.324,1.702-0.963,3.049-1.226
					c1.329-0.257,2.996-0.577,4.805-0.285c1.824,0.241,3.71,1.037,5.355,2.222c1.586,1.262,2.933,2.95,3.538,4.847
					c0.668,1.888,0.426,3.75,0.075,5.164c-0.348,1.458-1.265,2.405-1.794,2.981c-0.328,0.266-0.581,0.452-0.769,0.562
					c-0.18,0.112-0.276,0.171-0.276,0.171s0.027-0.109,0.078-0.315c0.055-0.198,0.102-0.503,0.141-0.869
					c0.158-0.704,0.051-1.738-0.077-2.787c-0.108-1.073-0.665-2.216-1.264-3.205c-0.653-0.979-1.487-1.958-2.566-2.714
					c-1.023-0.836-2.245-1.441-3.463-1.949c-1.237-0.47-2.52-0.954-3.694-1.125c-1.161-0.182-2.224-0.494-2.968-0.557
					C318.776,293.489,318.325,293.427,318.325,293.427z"/>
			</g>
		</g>
		<g>
			<path style="fill:#0F7292;" d="M285.949,412.249H120.525c-7.275,0-13.174-5.898-13.174-13.173V152.234
				c0-7.276,5.898-13.174,13.174-13.174h165.425c7.276,0,13.174,5.898,13.174,13.174v246.841
				C299.123,406.351,293.225,412.249,285.949,412.249z"/>
			<rect x="120.957" y="153.53" style="fill:#FFFFFF;" width="164.561" height="244.25"/>
			<g>
				<rect x="134.013" y="177.599" style="fill:#F08879;" width="21.791" height="21.791"/>
				<rect x="134.013" y="246.933" style="fill:#F08879;" width="21.791" height="21.791"/>
				<rect x="134.013" y="316.047" style="fill:#F08879;" width="21.791" height="21.791"/>
				<rect x="174.293" y="177.599" style="fill:#D1D3D4;" width="98.168" height="4.622"/>
				<rect x="174.293" y="191.979" style="fill:#D1D3D4;" width="98.168" height="4.622"/>
				<rect x="174.293" y="206.36" style="fill:#D1D3D4;" width="98.168" height="4.622"/>
				<rect x="174.293" y="220.74" style="fill:#D1D3D4;" width="60.31" height="4.622"/>
				<rect x="174.293" y="246.933" style="fill:#D1D3D4;" width="98.168" height="4.622"/>
				<rect x="174.293" y="261.313" style="fill:#D1D3D4;" width="98.168" height="4.622"/>
				<rect x="174.293" y="275.694" style="fill:#D1D3D4;" width="98.168" height="4.622"/>
				<rect x="174.293" y="290.074" style="fill:#D1D3D4;" width="60.31" height="4.622"/>
				<rect x="174.293" y="316.047" style="fill:#D1D3D4;" width="98.168" height="4.622"/>
				<rect x="174.293" y="330.427" style="fill:#D1D3D4;" width="98.168" height="4.622"/>
				<rect x="174.293" y="344.807" style="fill:#D1D3D4;" width="98.168" height="4.622"/>
				<rect x="174.293" y="359.188" style="fill:#D1D3D4;" width="60.31" height="4.622"/>
				<rect x="138.636" y="182.221" style="fill:#FFFFFF;" width="12.546" height="12.546"/>
				<rect x="138.636" y="251.555" style="fill:#FFFFFF;" width="12.546" height="12.546"/>
				<rect x="138.636" y="320.669" style="fill:#FFFFFF;" width="12.546" height="12.546"/>
			</g>
			<path style="fill:#4099AD;" d="M248.931,163.299h-91.387c-4.588,0-8.308-3.719-8.308-8.308l0,0
				c0-11.55,9.363-20.913,20.913-20.913h66.177c11.55,0,20.913,9.363,20.913,20.913l0,0
				C257.239,159.579,253.519,163.299,248.931,163.299z"/>
			<path style="fill:#4099AD;" d="M212.4,121.4c-2.34-2.34-5.58-3.79-9.16-3.79c-7.16,0-12.97,5.8-12.97,12.96v3.51h25.93v-3.51
				C216.2,126.99,214.75,123.75,212.4,121.4z M203.24,133.1c-2.85,0-5.15-2.3-5.15-5.15c0-2.84,2.3-5.15,5.15-5.15
				c2.84,0,5.15,2.31,5.15,5.15C208.39,130.8,206.08,133.1,203.24,133.1z"/>
			<g id="XMLID_36_">
				<g>
					<path style="fill:#263172;" d="M445.982,406.6l-1.736,4.796c-0.412,1.152-2.046,1.152-2.475,0l-1.736-4.796H445.982z"/>
					<path style="fill:#0F7292;" d="M453.906,250.727v134.01h-21.778v-94.424v-40.29v-13.631v-6.91c0-2.32,1.839-4.211,4.143-4.297
						v0.069h13.476v-0.069c2.303,0.069,4.16,1.977,4.16,4.297v4.624c-1.134-1.014-2.63-1.599-4.538-1.633
						c-5.311-0.12-7.941,6.979-5.363,10.674c2.578,3.713,8.474,1.083,9.66,7.735C453.665,250.881,453.751,250.83,453.906,250.727z"
						/>
					<path style="fill:#EED7BA;" d="M453.906,234.105c-1.134-1.014-2.63-1.599-4.538-1.633c-5.311-0.12-7.941,6.979-5.363,10.674
						c2.578,3.713,8.474,1.083,9.66,7.735c0,0,0.086-0.051,0.241-0.155c0.773-0.516,3.128-2.561,3.042-7.683
						C456.879,239.107,455.969,235.91,453.906,234.105z"/>
					<polygon style="fill:#0D5768;" points="453.906,384.736 445.982,406.6 440.034,406.6 432.128,384.736 					"/>
					<path style="fill:#0D5768;" d="M449.746,217.174v8.01c-0.052,0-0.086,0-0.138,0h-13.184c-0.052,0-0.103,0-0.155,0v-8.01
						c0-2.045,1.152-3.816,2.819-4.727c0.773-0.413,1.65-0.653,2.578-0.653h2.682C447.34,211.794,449.746,214.2,449.746,217.174z"/>
					<path style="fill:#FECA7A;" d="M439.003,211.794l0.086,0.653c-1.667,0.911-2.819,2.681-2.819,4.727v8.01
						c-2.303,0.086-4.143,1.977-4.143,4.297v6.91l-1.512,0.859l-0.344-0.619l-12.892-22.62c-0.859,19.045,2.853,48.558,2.853,48.558
						c-14.456,6.291-66.177,1.289-66.177,1.289l1.014-56.62c-10.313,5.689-55.949,5.328-55.949,5.328l0.653-18.048
						c0,0,41.683-7.735,57.015-15.47c9.746-4.933,16.776-7.202,20.592-8.216l-0.017,0.017c2.234,2.888,3.764,4.761,10.863,4.916
						c7.082,0.137,10.881-5.586,10.881-5.586S420.302,169.028,439.003,211.794z"/>
					<polygon style="fill:#0D5768;" points="432.128,236.391 432.128,250.022 428.037,251.741 427.074,286.341 423.963,286.341 
						423.963,262.569 423.963,241.015 430.615,237.251 					"/>
					<path style="fill:#0D5768;" d="M429.137,290.312c0,0.206,0,0.43-0.017,0.653c-0.223,3.111-5.156,2.578-5.156,2.578v-7.202
						h3.111C427.865,286.341,429.137,287.631,429.137,290.312z"/>
					<path style="fill:#F7BA6B;" d="M420.233,262.569l-3.575,7.58v0.567c-20.609,3.868-60.298-0.705-60.298-0.705l-2.303-6.154
						C354.056,263.859,405.777,268.861,420.233,262.569z"/>
					<path style="fill:#0D5768;" d="M416.658,270.717l1.719,127.781h-0.963H403.44h-1.392
						c-7.168-40.686-13.459-113.153-13.459-113.153h-3.73l-24.726,112.034h-1.048h-14.611h-1.392l13.278-127.367
						C356.36,270.012,396.048,274.584,416.658,270.717z"/>
					<path style="fill:#845E40;" d="M417.414,398.498v11.146c0,1.439-1.166,2.605-2.605,2.605h-12.886
						c-1.426,0-2.439-1.388-2.005-2.747l3.521-11.004H417.414z"/>
					<path style="fill:#F7BA6B;" d="M394.673,167.67l4.435,2.51c0,0-3.799,5.724-10.881,5.586
						c-7.099-0.155-8.629-2.028-10.863-4.916l0.017-0.017c2.183-0.567,3.318-0.739,3.318-0.739s9.247,4.452,14.043-1.272
						C394.742,168.822,394.708,168.392,394.673,167.67z"/>
					<path style="fill:#845E40;" d="M397.028,132.571c2.441,7.666-1.134,20.695-1.994,24.717c-0.12,0.533-0.206,1.117-0.275,1.753
						c-2.716-2.51-2.338-5.655-2.338-5.655c2.922-3.266,2.682-7.391,0.567-8.354c-2.114-0.962-3.111,4.4-3.197,4.727
						c-0.069,0.327-2.578-0.069-2.681-0.069c-0.103,0,0.069-2.011-0.103-3.61c-0.172-1.616-1.977-1.874-2.75-3.369
						c-0.791-1.513-0.224-2.939-1.341-4.658c-1.1-1.719-5.156-0.825-7.804-0.395c-1.238,0.206-3.575,0.43-5.724,0
						c-2.458-0.464-4.624-1.805-4.521-5.019c0.223-6.016,8.319-5.225,8.319-5.225c0.206,0,7.58,1.22,10.245,0.928
						C386.079,128.068,394.605,124.905,397.028,132.571z"/>
					<path style="fill:#EED7BA;" d="M394.673,167.67c0.034,0.722,0.069,1.152,0.069,1.152c-4.796,5.724-14.043,1.272-14.043,1.272
						v-1.925v-4.16c-2.149,0-5.621,0.378-8.251-2.561c-3.868-4.28-3.197-23.359-3.06-23.789c2.149,0.43,4.486,0.206,5.724,0
						c2.647-0.43,6.703-1.324,7.804,0.395c1.117,1.719,0.55,3.146,1.341,4.658c0.773,1.495,2.578,1.753,2.75,3.369
						c0.172,1.599,0,3.61,0.103,3.61c0.103,0,2.613,0.395,2.681,0.069c0.086-0.326,1.083-5.689,3.197-4.727
						c2.114,0.963,2.355,5.088-0.567,8.354c0,0-0.378,3.146,2.338,5.655C394.433,162.015,394.57,165.797,394.673,167.67z"/>
					<path style="fill:#F7BA6B;" d="M380.699,168.169v1.925c0,0-1.134,0.172-3.318,0.739L380.699,168.169z"/>
					<path style="fill:#845E40;" d="M359.084,397.379l-1.031,11.852c-0.146,1.679-1.543,2.97-3.229,2.976
						c-5.954,0.021-19.246,0.062-24.751,0.032c-0.875-0.005-1.28-1.086-0.623-1.663c4.372-3.845,15.024-13.197,15.024-13.197
						H359.084z"/>
				</g>
				<g>
					<path style="fill:none;" d="M369.389,137.659c-0.137,0.43-0.808,19.509,3.06,23.789c2.63,2.939,6.102,2.561,8.251,2.561v4.16
						v1.925c0,0-1.134,0.172-3.318,0.739c-3.816,1.014-10.846,3.283-20.592,8.216c-15.332,7.735-57.015,15.47-57.015,15.47
						l-0.653,18.048c0,0,45.636,0.361,55.949-5.328l-1.014,56.62l2.303,6.154L343.606,395.06h1.392h14.61h1.048l24.202-109.716h3.73
						c0,0,6.291,72.468,13.459,113.153h1.392h13.974h0.963l-1.719-127.781v-0.567l3.575-7.58c0,0-3.713-29.513-2.853-48.558
						l12.892,22.62"/>
					<path style="fill:none;" d="M380.699,170.094c0,0,9.247,4.452,14.043-1.272c0,0-0.034-0.43-0.069-1.152
						c-0.103-1.873-0.241-5.655,0.086-8.629c0.069-0.636,0.155-1.22,0.275-1.753c0.859-4.022,4.435-17.051,1.994-24.717
						c-2.423-7.666-10.949-4.504-13.596-4.228c-2.664,0.292-10.038-0.928-10.245-0.928c0,0-8.096-0.791-8.319,5.225
						c-0.103,3.214,2.063,4.555,4.521,5.019c2.149,0.43,4.486,0.206,5.724,0c2.647-0.43,6.703-1.324,7.804,0.395
						c1.117,1.719,0.55,3.146,1.341,4.658c0.773,1.495,2.578,1.753,2.75,3.369c0.172,1.599,0,3.61,0.103,3.61
						c0.103,0,2.613,0.395,2.681,0.069c0.086-0.326,1.083-5.689,3.197-4.727c2.114,0.963,2.355,5.088-0.567,8.354
						c0,0-0.378,3.146,2.338,5.655"/>
					<path style="fill:none;" d="M380.699,168.169l-3.318,2.664l-0.017,0.017c2.234,2.888,3.764,4.761,10.863,4.916
						c7.082,0.137,10.881-5.586,10.881-5.586l-4.435-2.51"/>
					<path style="fill:none;" d="M399.108,170.18c0,0,21.194-1.152,39.895,41.614"/>
					<path style="fill:none;" d="M453.906,382.169h-21.778v-91.857v-40.29v-13.631v-6.91c0-2.32,1.839-4.211,4.143-4.297
						c0.052,0,0.103,0,0.155,0h13.184c0.052,0,0.086,0,0.138,0c2.303,0.069,4.16,1.977,4.16,4.297v4.624v16.622V382.169z"/>
					<path style="fill:none;" d="M432.128,236.391l-1.512,0.859l-6.652,3.764v21.555v23.772v7.202c0,0,4.933,0.533,5.156-2.578
						c0.017-0.224,0.017-0.447,0.017-0.653c0-2.681-1.272-3.971-2.063-3.971l0.963-34.601l4.091-1.719"/>
					<path style="fill:none;" d="M449.746,225.184v0.069H436.27v-0.069v-8.01c0-2.045,1.152-3.816,2.819-4.727
						c0.773-0.413,1.65-0.653,2.578-0.653h2.682c2.991,0,5.397,2.406,5.397,5.38V225.184z"/>
					<path style="fill:none;" d="M453.665,250.881c0,0,0.086-0.052,0.241-0.155c0.774-0.516,3.128-2.561,3.042-7.683
						c-0.069-3.936-0.98-7.133-3.042-8.938c-1.134-1.014-2.63-1.599-4.538-1.633c-5.311-0.12-7.941,6.979-5.363,10.674
						C446.583,246.859,452.479,244.229,453.665,250.881"/>
					<path style="fill:none;" d="M453.906,382.169l-7.924,21.864l-1.736,4.796c-0.412,1.152-2.046,1.152-2.475,0l-1.736-4.796
						l-7.907-21.864"/>
					<polyline style="fill:none;" points="439.949,404.033 440.034,404.033 445.982,404.033 					"/>
					<path style="fill:none;" d="M417.414,398.498v11.146c0,1.439-1.166,2.605-2.605,2.605h-12.886
						c-1.426,0-2.439-1.388-2.005-2.747l3.521-11.004"/>
					<path style="fill:none;" d="M359.608,395.06l-1.031,11.852c-0.146,1.68-1.543,2.97-3.229,2.976
						c-5.954,0.021-19.246,0.061-24.751,0.032c-0.875-0.005-1.28-1.086-0.623-1.663c4.372-3.845,15.024-13.197,15.024-13.197"/>
					<path style="fill:none;" d="M354.056,263.859c0,0,51.721,5.002,66.177-1.289"/>
					<path style="fill:none;" d="M356.36,270.012c0,0,39.689,4.572,60.298,0.705"/>
				</g>
			</g>
		</g>
		<g>
			<path style="fill:#D1EBF2;" d="M55.647,416.984h419.652c1.307,0,2.368-1.06,2.368-2.368c0-1.308-1.06-2.368-2.368-2.368H55.647
				c-1.308,0-2.368,1.06-2.368,2.368C53.279,415.924,54.339,416.984,55.647,416.984"/>
		</g>
	</g>
</g>

</svg>
