<?xml version="1.0" encoding="utf-8"?>
<!-- Generator: Adobe Illustrator 27.5.0, SVG Export Plug-In . SVG Version: 6.00 Build 0)  -->
<svg version="1.1" xmlns="http://www.w3.org/2000/svg" xmlns:xlink="http://www.w3.org/1999/xlink" x="0px" y="0px"
	 viewBox="0 0 500 500" style="enable-background:new 0 0 500 500;" xml:space="preserve">

<g id="OBJECTS">
	<g>
		<ellipse style="fill:#F3F2F7;" cx="262.935" cy="411.43" rx="201.414" ry="27.997"/>
		<path style="fill:#F3F2F7;" d="M422.31,264.34c-12.6,15.15-21.15,31.11-26.88,46.64c-3.23,8.74-5.56,17.35-7.2,25.59
			c-7.72,38.6-0.52,69.33-0.52,69.33l-283.1,1.04c0,0,10.48-44.73-23.07-79.34c-33.56-34.6-49.28-83.18-24.12-101
			c25.17-17.83-12.58-104.86,35.65-105.91c48.23-1.05,60.72,14.23,81.69,13.18c20.97-1.05,117.83-72.27,145.75-14.68
			C354.06,188.39,492.47,180,422.31,264.34z"/>
	</g>
	<g>
		<path style="fill:#CFCFD1;" d="M166.022,414.876c0,3.089-16.274,5.592-36.349,5.592c-20.075,0-36.349-2.504-36.349-5.592
			s16.274-5.592,36.349-5.592C149.748,409.284,166.022,411.788,166.022,414.876z"/>
		<ellipse style="fill:#CFCFD1;" cx="415.692" cy="407.304" rx="26.829" ry="4.128"/>
		<ellipse style="fill:#CFCFD1;" cx="249.915" cy="408.154" rx="152.892" ry="7.802"/>
	</g>
	<g>
		<g>
			<g>
				<path style="fill:#BEB2ED;" d="M440.141,252.317l-0.797-0.604c0.501-0.661,0.995-1.327,1.481-2l0.81,0.587
					C441.144,250.979,440.645,251.65,440.141,252.317z"/>
				<path style="fill:#BEB2ED;" d="M341.245,300.9c-1.665-0.017-3.336-0.066-4.968-0.148l0.051-0.998
					c1.618,0.081,3.275,0.13,4.927,0.146L341.245,300.9z M346.216,300.849l-0.029-1c1.626-0.048,3.282-0.131,4.923-0.246l0.07,0.998
					C349.525,300.717,347.855,300.8,346.216,300.849z M331.321,300.405c-1.641-0.147-3.303-0.331-4.939-0.546l0.131-0.992
					c1.623,0.213,3.271,0.395,4.898,0.542L331.321,300.405z M356.131,300.151l-0.109-0.994c1.618-0.179,3.262-0.395,4.887-0.643
					l0.15,0.988C359.421,299.753,357.763,299.971,356.131,300.151z M321.469,299.113c-1.624-0.281-3.266-0.6-4.88-0.946l0.211-0.978
					c1.601,0.345,3.228,0.66,4.839,0.939L321.469,299.113z M365.95,298.656l-0.19-0.982c1.594-0.309,3.213-0.657,4.813-1.036
					l0.23,0.973C369.191,297.992,367.559,298.344,365.95,298.656z M311.752,297.022c-1.593-0.412-3.203-0.863-4.786-1.341
					l0.289-0.957c1.57,0.474,3.167,0.921,4.747,1.329L311.752,297.022z M375.611,296.367l-0.27-0.963
					c1.577-0.442,3.164-0.922,4.715-1.427l0.309,0.951C378.802,295.438,377.202,295.921,375.611,296.367z M302.226,294.141
					c-1.564-0.545-3.137-1.128-4.672-1.733l0.367-0.93c1.522,0.6,3.081,1.178,4.633,1.718L302.226,294.141z M385.057,293.296
					l-0.348-0.938c1.522-0.564,3.064-1.172,4.584-1.807l0.385,0.922C388.146,292.114,386.592,292.728,385.057,293.296z
					 M292.958,290.485c-1.511-0.668-3.028-1.377-4.512-2.108l0.441-0.897c1.472,0.725,2.977,1.428,4.475,2.091L292.958,290.485z
					 M394.223,289.463l-0.424-0.906c1.483-0.693,2.971-1.425,4.422-2.176l0.459,0.889
					C397.218,288.025,395.718,288.764,394.223,289.463z M284.024,286.087c-1.453-0.791-2.907-1.621-4.322-2.468l0.514-0.857
					c1.403,0.839,2.846,1.662,4.287,2.446L284.024,286.087z M403.045,284.896l-0.494-0.869c1.41-0.804,2.833-1.654,4.23-2.527
					l0.53,0.848C405.902,283.228,404.468,284.085,403.045,284.896z M275.484,280.979c-1.381-0.903-2.762-1.849-4.107-2.808
					l0.582-0.814c1.332,0.952,2.702,1.89,4.071,2.786L275.484,280.979z M411.472,279.627l-0.564-0.826
					c1.352-0.924,2.701-1.888,4.012-2.863l0.598,0.803C414.195,277.724,412.834,278.694,411.472,279.627z M267.391,275.198
					c-1.311-1.02-2.611-2.072-3.863-3.13l0.645-0.764c1.242,1.049,2.532,2.093,3.832,3.104L267.391,275.198z M419.442,273.691
					l-0.629-0.777c1.267-1.024,2.534-2.094,3.769-3.179l0.66,0.752C421.998,271.58,420.72,272.658,419.442,273.691z
					 M259.793,268.786c-1.22-1.118-2.43-2.271-3.597-3.431l0.705-0.709c1.156,1.148,2.356,2.294,3.567,3.401L259.793,268.786z
					 M426.909,267.134l-0.689-0.725c1.188-1.133,2.365-2.301,3.5-3.472l0.719,0.695
					C429.295,264.814,428.107,265.991,426.909,267.134z M252.74,261.785c-1.124-1.209-2.236-2.456-3.308-3.708l0.76-0.65
					c1.063,1.241,2.166,2.478,3.28,3.677L252.74,261.785z M433.825,259.991l-0.746-0.666c1.087-1.216,2.167-2.476,3.21-3.742
					l0.771,0.635C436.01,257.496,434.921,258.766,433.825,259.991z M246.277,254.239c-1.02-1.293-2.028-2.626-2.996-3.96
					l0.809-0.587c0.96,1.324,1.96,2.645,2.972,3.928L246.277,254.239z M240.447,246.202c-0.917-1.376-1.813-2.785-2.666-4.187
					l0.855-0.52c0.845,1.39,1.735,2.788,2.643,4.153L240.447,246.202z M235.289,237.724c-0.799-1.443-1.579-2.919-2.315-4.387
					l0.894-0.448c0.731,1.456,1.504,2.92,2.297,4.351L235.289,237.724z M230.838,228.861c-0.68-1.503-1.336-3.037-1.951-4.558
					l0.928-0.374c0.609,1.508,1.259,3.028,1.934,4.52L230.838,228.861z M227.12,219.658c-0.555-1.553-1.085-3.139-1.577-4.714
					l0.955-0.298c0.487,1.561,1.013,3.135,1.563,4.676L227.12,219.658z M224.162,210.17c-0.424-1.585-0.823-3.208-1.186-4.827
					l0.976-0.219c0.36,1.605,0.756,3.216,1.176,4.787L224.162,210.17z M221.99,200.473c-0.294-1.617-0.559-3.268-0.789-4.907
					l0.99-0.139c0.228,1.626,0.491,3.263,0.782,4.867L221.99,200.473z M220.613,190.632c-0.162-1.634-0.292-3.301-0.388-4.955
					l0.998-0.058c0.096,1.64,0.225,3.293,0.385,4.914L220.613,190.632z M220.035,180.71c-0.014-0.75-0.021-1.502-0.02-2.255
					c0-0.907,0.01-1.813,0.029-2.715l1,0.021c-0.02,0.896-0.029,1.794-0.029,2.694c-0.001,0.747,0.006,1.493,0.02,2.236
					L220.035,180.71z M221.25,170.835l-0.998-0.061c0.102-1.65,0.239-3.317,0.407-4.954l0.995,0.102
					C221.487,167.546,221.352,169.199,221.25,170.835z M222.256,161.029l-0.99-0.143c0.235-1.637,0.507-3.289,0.809-4.913
					l0.983,0.183C222.759,157.767,222.489,159.406,222.256,161.029z M224.058,151.322l-0.975-0.223
					c0.367-1.607,0.773-3.231,1.207-4.829l0.965,0.262C224.824,148.117,224.421,149.728,224.058,151.322z M226.645,141.798
					l-0.953-0.302c0.499-1.578,1.036-3.163,1.597-4.713l0.94,0.341C227.673,138.661,227.14,140.233,226.645,141.798z
					 M230.003,132.519l-0.926-0.378c0.626-1.53,1.291-3.066,1.977-4.565l0.909,0.416
					C231.283,129.479,230.623,131.002,230.003,132.519z M234.106,123.549l-0.892-0.453c0.75-1.479,1.538-2.955,2.342-4.388
					l0.872,0.489C235.632,120.618,234.851,122.083,234.106,123.549z M238.926,114.942l-0.852-0.524
					c0.864-1.406,1.769-2.813,2.689-4.183l0.83,0.558C240.681,112.152,239.783,113.548,238.926,114.942z M244.427,106.757
					l-0.807-0.591c0.976-1.333,1.992-2.662,3.019-3.951l0.782,0.623C246.402,104.117,245.395,105.436,244.427,106.757z
					 M250.57,99.045l-0.756-0.654c1.087-1.256,2.206-2.499,3.328-3.694l0.729,0.685C252.759,96.566,251.648,97.799,250.57,99.045z
					 M257.316,91.854l-0.701-0.713c1.177-1.157,2.393-2.305,3.614-3.413l0.672,0.741C259.689,89.568,258.483,90.707,257.316,91.854z
					 M264.619,85.231l-0.641-0.768c1.27-1.062,2.574-2.108,3.877-3.11l0.609,0.793C267.173,83.14,265.879,84.178,264.619,85.231z"/>
				<path style="fill:#BEB2ED;" d="M272.514,79.161l-0.576-0.817c0.684-0.482,1.371-0.957,2.065-1.426l0.56,0.828
					C273.875,78.211,273.191,78.683,272.514,79.161z"/>
			</g>
			<g>
				<path style="fill:#BEB2ED;" d="M329.057,57.737l-0.109-0.994c0.83-0.091,1.663-0.174,2.497-0.249l0.09,0.996
					C330.706,57.564,329.879,57.647,329.057,57.737z"/>
				<path style="fill:#BEB2ED;" d="M463.523,196.994l-0.988-0.15c0.25-1.651,0.468-3.321,0.648-4.964l0.994,0.109
					C463.996,193.646,463.775,195.329,463.523,196.994z M464.626,186.964l-0.998-0.068c0.114-1.658,0.195-3.34,0.241-5.001l1,0.028
					C464.822,183.597,464.74,185.293,464.626,186.964z M463.907,176.889c-0.021-1.652-0.075-3.335-0.164-5.001l0.998-0.054
					c0.09,1.681,0.146,3.377,0.166,5.043L463.907,176.889z M463.373,166.898c-0.156-1.66-0.349-3.333-0.571-4.971l0.99-0.135
					c0.225,1.652,0.419,3.338,0.577,5.012L463.373,166.898z M462.024,156.984c-0.293-1.641-0.622-3.292-0.98-4.906l0.977-0.217
					c0.36,1.628,0.693,3.293,0.988,4.947L462.024,156.984z M459.86,147.215c-0.421-1.59-0.887-3.208-1.383-4.808l0.955-0.296
					c0.501,1.613,0.97,3.245,1.395,4.848L459.86,147.215z M456.895,137.66c-0.556-1.557-1.153-3.131-1.778-4.677l0.928-0.374
					c0.63,1.559,1.232,3.145,1.792,4.715L456.895,137.66z M453.152,128.395c-0.685-1.513-1.41-3.028-2.153-4.504l0.893-0.45
					c0.75,1.488,1.48,3.016,2.171,4.542L453.152,128.395z M448.66,119.478c-0.802-1.44-1.648-2.892-2.52-4.315l0.853-0.521
					c0.878,1.434,1.733,2.898,2.539,4.35L448.66,119.478z M443.447,110.954c-0.921-1.374-1.885-2.752-2.866-4.095l0.807-0.59
					c0.99,1.354,1.962,2.744,2.89,4.128L443.447,110.954z M437.546,102.883c-1.034-1.3-2.109-2.595-3.193-3.849l0.756-0.654
					c1.094,1.264,2.177,2.569,3.221,3.88L437.546,102.883z M431.003,95.319c-1.135-1.207-2.313-2.411-3.5-3.576l0.701-0.714
					c1.196,1.174,2.384,2.387,3.527,3.605L431.003,95.319z M423.858,88.313c-1.227-1.109-2.499-2.212-3.782-3.279l0.639-0.769
					c1.295,1.076,2.577,2.188,3.814,3.306L423.858,88.313z M416.162,81.911c-1.321-1.01-2.681-2.005-4.04-2.959l0.574-0.818
					c1.371,0.961,2.741,1.965,4.073,2.983L416.162,81.911z M407.961,76.161c-1.398-0.898-2.836-1.779-4.27-2.618l0.506-0.863
					c1.446,0.846,2.895,1.734,4.306,2.639L407.961,76.161z M399.314,71.104c-1.474-0.782-2.979-1.542-4.476-2.257l0.432-0.902
					c1.509,0.722,3.026,1.488,4.513,2.276L399.314,71.104z M390.271,66.775c-1.53-0.656-3.095-1.289-4.649-1.879l0.355-0.935
					c1.567,0.596,3.145,1.233,4.689,1.895L390.271,66.775z M380.897,63.211c-1.575-0.525-3.184-1.024-4.779-1.483l0.277-0.961
					c1.608,0.463,3.23,0.966,4.818,1.495L380.897,63.211z M371.282,60.444c-1.605-0.392-3.249-0.755-4.885-1.082l0.195-0.981
					c1.65,0.33,3.308,0.697,4.926,1.091L371.282,60.444z M361.47,58.484c-1.638-0.258-3.305-0.485-4.957-0.675l0.115-0.993
					c1.665,0.192,3.347,0.421,4.998,0.68L361.47,58.484z M351.532,57.338c-1.651-0.122-3.333-0.212-4.996-0.267l0.033-0.999
					c1.677,0.055,3.371,0.145,5.037,0.269L351.532,57.338z M336.528,57.148l-0.049-0.999c1.665-0.08,3.362-0.127,5.045-0.14l0.008,1
					C339.863,57.022,338.18,57.068,336.528,57.148z"/>
				<path style="fill:#BEB2ED;" d="M462.144,204.488l-0.977-0.213c0.176-0.809,0.343-1.622,0.501-2.437l0.982,0.19
					C462.49,202.852,462.321,203.671,462.144,204.488z"/>
			</g>
		</g>
		<path style="fill:#4A3B87;" d="M314.684,63.41c-0.002-1.537-0.233-3.018-0.649-4.419l3.116-0.929
			c-0.512-1.715-1.266-3.348-2.241-4.851l-2.727,1.77c-0.807-1.245-1.786-2.363-2.905-3.328l2.121-2.465
			c-1.36-1.17-2.875-2.137-4.501-2.875l-1.344,2.963c-1.325-0.6-2.749-1.015-4.241-1.223l0.45-3.227
			c-1.756-0.244-3.581-0.24-5.337,0.016l0.47,3.226c-1.491,0.217-2.91,0.641-4.231,1.249l-1.363-2.957
			c-1.623,0.748-3.132,1.724-4.484,2.903l2.138,2.452c-1.114,0.971-2.086,2.095-2.886,3.345l-2.739-1.755
			c-0.969,1.51-1.712,3.147-2.212,4.866l3.124,0.908c-0.401,1.381-0.627,2.836-0.627,4.347c0,0.009,0.001,0.018,0.001,0.027
			l-3.242,0.006c0.003,1.799,0.261,3.577,0.766,5.286l3.117-0.92c0.423,1.437,1.05,2.783,1.845,4.013l-2.73,1.762
			c0.97,1.502,2.148,2.858,3.505,4.03l2.126-2.46c1.113,0.962,2.363,1.765,3.719,2.382l-1.35,2.963
			c1.629,0.743,3.355,1.246,5.131,1.498l0.457-3.229c0.719,0.102,1.449,0.173,2.196,0.173c0.756,0,1.493-0.072,2.221-0.177
			l0.463,3.227c1.774-0.254,3.499-0.762,5.127-1.508l-1.356-2.96c1.354-0.62,2.602-1.426,3.714-2.391l2.132,2.456
			c1.353-1.173,2.529-2.531,3.496-4.036l-2.735-1.76c0.792-1.231,1.415-2.578,1.835-4.015l3.122,0.913
			c0.5-1.71,0.754-3.489,0.754-5.286v-0.068L314.684,63.41z M299.155,66.047c-1.45,0-2.63-1.17-2.63-2.62
			c0-1.45,1.18-2.63,2.63-2.63c1.45,0,2.62,1.18,2.62,2.63C301.775,64.877,300.605,66.047,299.155,66.047z"/>
		<path style="fill:#EE8ECE;" d="M469.784,226.974c-0.002-1.537-0.233-3.018-0.649-4.419l3.116-0.929
			c-0.512-1.715-1.266-3.348-2.241-4.851l-2.727,1.77c-0.807-1.245-1.786-2.363-2.906-3.328l2.121-2.465
			c-1.36-1.17-2.875-2.137-4.501-2.875l-1.344,2.963c-1.325-0.6-2.748-1.015-4.241-1.223l0.45-3.227
			c-1.756-0.244-3.581-0.24-5.337,0.016l0.47,3.227c-1.491,0.217-2.91,0.641-4.231,1.249l-1.362-2.957
			c-1.623,0.748-3.132,1.724-4.484,2.903l2.138,2.452c-1.114,0.971-2.086,2.095-2.886,3.345l-2.739-1.756
			c-0.969,1.51-1.712,3.148-2.212,4.866l3.124,0.908c-0.401,1.38-0.627,2.836-0.627,4.347c0,0.009,0.001,0.018,0.001,0.027
			l-3.242,0.006c0.003,1.799,0.261,3.577,0.766,5.286l3.117-0.92c0.423,1.437,1.05,2.783,1.845,4.014l-2.73,1.762
			c0.97,1.502,2.149,2.858,3.505,4.03l2.126-2.46c1.113,0.962,2.363,1.765,3.719,2.382l-1.35,2.963
			c1.629,0.743,3.355,1.246,5.131,1.498l0.457-3.229c0.719,0.102,1.448,0.173,2.196,0.173c0.756,0,1.493-0.072,2.221-0.177
			l0.463,3.227c1.774-0.254,3.499-0.762,5.127-1.508l-1.356-2.96c1.354-0.62,2.602-1.426,3.714-2.391l2.132,2.456
			c1.353-1.173,2.529-2.531,3.496-4.036l-2.735-1.76c0.792-1.231,1.415-2.578,1.835-4.015l3.122,0.913
			c0.5-1.71,0.754-3.489,0.754-5.286v-0.068L469.784,226.974z M454.259,231.647c-2.575,0-4.67-2.077-4.67-4.652
			c0-2.575,2.095-4.67,4.67-4.67c2.575,0,4.652,2.095,4.652,4.67C458.911,229.569,456.834,231.647,454.259,231.647z"/>
	</g>
	<g>
		<g>
			<path style="fill:#ABD5FF;" d="M360.42,171.134v235.81H112.96v-235.81c0-2.19,1.77-3.96,3.96-3.96h239.54
				C358.65,167.174,360.42,168.944,360.42,171.134z"/>
			<g>
				<path style="fill:#87BBFF;" d="M360.42,169.98v5H112.96v-5c0-2.19,1.77-3.96,3.96-3.96h239.54
					C358.65,166.02,360.42,167.79,360.42,169.98z"/>
				<g>
					<circle style="fill:#F0F1F1;" cx="120.159" cy="170.498" r="1.573"/>
					<circle style="fill:#F0F1F1;" cx="128.154" cy="170.498" r="1.573"/>
					<circle style="fill:#F0F1F1;" cx="136.149" cy="170.498" r="1.573"/>
				</g>
			</g>
		</g>
		<g>
			<rect x="139.207" y="187.916" style="fill:#FFFFFF;" width="76.893" height="37.048"/>
			<rect x="173.52" y="194.09" style="fill:#D8E7F9;" width="35.607" height="24.699"/>
			<rect x="144.683" y="194.09" style="fill:#7FDAEE;" width="24.699" height="24.699"/>
		</g>
		<g>
			<rect x="253.265" y="249.547" style="fill:#FFFFFF;" width="91.01" height="5.278"/>
			<rect x="253.265" y="261.826" style="fill:#FFFFFF;" width="91.01" height="5.278"/>
			<rect x="253.265" y="274.106" style="fill:#FFFFFF;" width="91.01" height="5.278"/>
			<rect x="253.265" y="286.386" style="fill:#FFFFFF;" width="91.01" height="5.278"/>
			<rect x="253.265" y="298.666" style="fill:#FFFFFF;" width="91.01" height="5.278"/>
			<rect x="253.265" y="310.945" style="fill:#FFFFFF;" width="91.01" height="5.278"/>
			<rect x="253.265" y="335.505" style="fill:#FFFFFF;" width="91.01" height="5.278"/>
			<rect x="253.265" y="323.225" style="fill:#FFFFFF;" width="91.01" height="5.278"/>
			<rect x="253.265" y="347.994" style="fill:#FFFFFF;" width="91.01" height="5.278"/>
			<rect x="253.265" y="372.553" style="fill:#FFFFFF;" width="91.01" height="5.278"/>
			<rect x="253.265" y="360.274" style="fill:#FFFFFF;" width="91.01" height="5.278"/>
		</g>
	</g>
	<g>
		<g>
			
				<rect x="249.653" y="192.343" transform="matrix(0.9906 0.1366 -0.1366 0.9906 31.5001 -37.3728)" style="fill:#FFFFFF;" width="76.893" height="37.048"/>
			
				<rect x="256.178" y="195.372" transform="matrix(0.9906 0.1366 -0.1366 0.9906 30.8871 -34.729)" style="fill:#EE8ECE;" width="24.699" height="24.699"/>
			
				<rect x="284.083" y="200.138" transform="matrix(0.9906 0.1366 -0.1366 0.9906 31.8549 -39.3011)" style="fill:#D8E7F9;" width="36.492" height="24.699"/>
		</g>
		<g>
			<g>
				<path style="fill:#1D1447;" d="M187.858,203.934l-4.556,2.651c0,0,4.296,12.911,6.074,13.182
					c1.779,0.271,2.427-7.498,2.427-7.498S188.126,206.214,187.858,203.934z"/>
				<path style="fill:#0666BE;" d="M219.791,158.271c0,0,9.565,16.815,0.463,29.774c-9.102,12.958-27.614,26.071-27.614,26.071
					l-6.016-11.261c0,0,18.203-12.65,20.363-20.98c2.16-8.33-1.234-22.986-1.234-22.986L219.791,158.271z"/>
			</g>
			<g>
				<path style="fill:#1D1447;" d="M211.615,220.749l0.771,5.708c0,0,13.576,0.926,14.501-0.617
					c0.926-1.543-6.016-5.091-6.016-5.091S213.826,221.366,211.615,220.749z"/>
				<path style="fill:#2880F4;" d="M184.464,153.334c0,0-3.702,11.57,9.873,19.592c13.576,8.022,16.044,22.523,16.661,33.322
					c0.617,10.799-0.926,15.118-0.926,15.118s5.554,1.08,9.102,0c3.548-1.08,4.782-2.314,4.782-2.314s5.862-21.135,0.926-36.561
					c-4.334-13.544-15.272-23.603-15.272-23.603L184.464,153.334z"/>
			</g>
			<g>
				<path style="fill:#3F3278;" d="M215.935,113.803c0,0-8.793-1.813-15.118,8.369c-6.325,10.182-16.352,31.162-16.352,31.162
					s10.953,5.554,19.746,5.862c8.793,0.309,15.581-0.926,15.581-0.926s8.396-21.583,8.948-29.311
					c0.617-8.639-5.502-13.524-5.502-13.524L215.935,113.803z"/>
				<g>
					<path style="fill:#4A3B87;" d="M225.345,117.544c0,0,18.358,17.278,26.38,18.821c8.022,1.543,10.49,1.543,10.49,1.543
						l-0.771,8.331c0,0-10.953,0-19.9-2.16c-8.948-2.16-15.118-4.782-15.118-4.782L225.345,117.544z"/>
					<path style="fill:#F6D1A9;" d="M262.041,139.18l2.179,0.424c0,0,1.388-5.245,4.782-5.399c3.394-0.154,2.931,7.636-1.543,9.179
						c-4.474,1.543-5.804,0.212-5.804,0.212L262.041,139.18z"/>
				</g>
				<g>
					<polygon style="fill:#1D1447;" points="192.795,162.128 191.56,159.042 291.526,127.88 291.834,130.04 					"/>
					<path style="fill:#1D1447;" d="M283.117,192.744c-0.331-0.274-0.589-1.319-0.666-1.974c-0.014-0.123-0.077-0.228-0.167-0.299
						l9.46-62.558l-0.436-0.066l-9.462,62.574c-0.177,0.074-0.295,0.252-0.272,0.452c0.038,0.322,0.262,1.957,0.98,2.552
						c1.967,1.629,2.44,4.34,1.751,5.919c-0.297,0.68-0.935,1.45-2.285,1.274c-0.474-0.063-0.81-0.255-1.024-0.588
						c-0.503-0.778-0.244-2.179-0.103-2.653c0.07-0.233-0.062-0.479-0.296-0.55c-0.234-0.072-0.479,0.063-0.549,0.295
						c-0.026,0.085-0.622,2.103,0.204,3.385c0.359,0.556,0.915,0.887,1.652,0.985c0.168,0.022,0.332,0.033,0.492,0.033
						c1.227,0,2.202-0.648,2.717-1.828C285.948,197.784,285.43,194.66,283.117,192.744z"/>
				</g>
				<g>
					<path style="fill:#4A3B87;" d="M209.353,114.922c0,0,4.165,2.211,3.085,6.068c-1.08,3.857-11.776,19.695-11.776,19.695
						l17.895,1.851l-1.851,10.799c0,0-29.311-0.771-31.625-6.942C182.767,140.222,203.799,113.533,209.353,114.922z"/>
					<path style="fill:#F6D1A9;" d="M218.249,144.541c0,0,7.251-1.234,8.022,1.543c0.771,2.777,0.154,7.713-1.234,7.868
						c-1.388,0.154-1.851-1.851-3.394-1.851c-1.543,0-4.782,0.154-4.782,0.154L218.249,144.541z"/>
				</g>
			</g>
			<g>
				<g>
					<path style="fill:#F6D1A9;" d="M221.591,101.449c0,0-0.206-2.777-1.748-1.748c-1.543,1.028,0.926,4.217,0.926,4.217
						l-4.731,9.976c0,0,0.617,2.262,2.88,2.571c2.263,0.308,4.319-1.029,4.319-1.029l1.44-3.599c0,0,1.748,1.44,3.805,0.103
						s9.359-14.912,2.16-16.147C223.442,94.559,221.591,101.449,221.591,101.449z"/>
					<path style="fill:#FE9889;" d="M233.832,100.111c0,0-1.342,0.415-6.073,0.724c-3.911,0.256-5.635,0.674-6.165,0.55
						c-0.203-0.706-0.792-2.263-1.754-1.68c-1.545,0.918,0.927,4.211,0.927,4.211s0.009,0,0.018,0
						c-0.856,2.595-2.489,4.837-2.489,4.837s-5.967-12.182,5.659-15.325C234.238,90.648,233.832,100.111,233.832,100.111z"/>
				</g>
				<g>
					<path style="fill:#343D70;" d="M222.028,94.25c0,0-1.311-2.468-1.851-2.16c-0.54,0.309-2.777,1.003-2.545,1.62
						c0.231,0.617,1.62,2.005,1.62,2.005L222.028,94.25z"/>
					<path style="fill:#FE9889;" d="M220.177,92.09c0,0-5.065-4.268-9.899-2.366c-4.834,1.903-3.702,5.965-7.816,7.611
						c-4.114,1.646-18.101-1.646-24.683,6.582c-6.582,8.228-13.884,20.415,0.411,23.654s14.604-16.044,19.849-19.9
						c5.245-3.857,8.947-1.08,11.827-3.96c2.88-2.88,2.365-11.776,7.533-10.387L220.177,92.09z"/>
				</g>
			</g>
		</g>
	</g>
	<g>
		<g>
			<g>
				<path style="fill:#FE706B;" d="M112.819,294.925c0,0-12.233-2.447-17.65,23.068c-5.417,25.514-5.243,30.408-5.243,30.408
					s10.311,2.621,19.049,2.447c8.738-0.175,22.893-2.272,22.893-2.272s1.922-42.116-2.447-47.534
					c-4.369-5.418-6.408-3.961-6.408-3.961L112.819,294.925z"/>
				<g>
					<g>
						<path style="fill:#F6D1A9;" d="M129.479,258.78c0,0,5.709-7.806,6.757-8.068c1.049-0.262,3.058-0.786,3.058-0.786l1.573,7.951
							c0,0-7.515,6.815-8.301,5.942C131.78,262.945,129.479,258.78,129.479,258.78z"/>
						<path style="fill:#FE706B;" d="M112.819,294.925c0,0,7.165-17.126,13.282-22.369c6.116-5.243,7.689-6.815,7.689-6.815
							l-5.767-9.262c0,0-15.553,11.185-20.796,20.971c-5.243,9.786-7.689,27.262-7.689,27.262L112.819,294.925z"/>
					</g>
					<g>
						
							<rect x="145.608" y="237.165" transform="matrix(0.9858 -0.1678 0.1678 0.9858 -49.6784 35.848)" style="fill:#FFFFFF;" width="83.461" height="149.592"/>
						<g>
							
								<rect x="146.786" y="285.795" transform="matrix(0.9858 -0.1678 0.1678 0.9858 -46.0679 34.5684)" style="fill:#D8E7F9;" width="69.455" height="8.161"/>
							
								<rect x="149.641" y="300.067" transform="matrix(0.9858 -0.1678 0.1678 0.9858 -48.4222 35.2498)" style="fill:#D8E7F9;" width="69.455" height="8.161"/>
							
								<rect x="156.281" y="329.077" transform="matrix(0.9858 -0.1678 0.1678 0.9858 -53.1959 36.7754)" style="fill:#D8E7F9;" width="69.455" height="8.161"/>
							
								<rect x="157.299" y="344.406" transform="matrix(0.9858 -0.1678 0.1678 0.9858 -55.6064 34.8242)" style="fill:#D8E7F9;" width="41.919" height="4.081"/>
							
								<rect x="159.047" y="353.668" transform="matrix(0.9858 -0.1678 0.1678 0.9858 -57.1366 35.2494)" style="fill:#D8E7F9;" width="41.919" height="4.081"/>
							
								<rect x="160.27" y="363.804" transform="matrix(0.9858 -0.1678 0.1678 0.9858 -58.82 35.5984)" style="fill:#D8E7F9;" width="41.919" height="4.081"/>
							
								<rect x="152.786" y="315.271" transform="matrix(0.9858 -0.1678 0.1678 0.9858 -50.9289 35.9932)" style="fill:#D8E7F9;" width="69.455" height="8.161"/>
							
								<rect x="143.751" y="258.401" transform="matrix(0.9858 -0.1678 0.1678 0.9858 -43.2188 30.0328)" style="fill:#7FDAEE;" width="24.699" height="24.699"/>
							
								<rect x="203.518" y="337.741" transform="matrix(0.9858 -0.1678 0.1678 0.9858 -55.6844 41.1865)" style="fill:#EE8ECE;" width="24.699" height="24.699"/>
							
								<rect x="174.49" y="251.929" transform="matrix(0.9858 -0.1678 0.1678 0.9858 -41.5995 36.2539)" style="fill:#D8E7F9;" width="38.461" height="24.699"/>
						</g>
					</g>
				</g>
				<g>
					<path style="fill:#FE706B;" d="M130.353,304.653c0,0,8.621,4.544,16.893-4.893c8.272-9.437,11.068-12.582,11.068-12.582
						l4.777,7.806c0,0-10.719,21.437-20.155,23.417c-9.437,1.981-10.835,1.981-10.835,1.981L130.353,304.653z"/>
					<path style="fill:#F6D1A9;" d="M158.896,288.517c0,0,0.874-6.582,1.864-6.815c0.99-0.233,0.99,2.68,0.99,2.68
						s1.922-5.942,3.379-5.825s-0.175,4.019-0.175,4.019s2.155-3.786,3.67-3.379c1.515,0.408-2.097,5.359-2.097,5.359
						s2.505-2.796,3.146-2.039c0.641,0.757-3.029,5.01-3.029,5.01s1.922-2.33,2.796-0.99c0.874,1.34-6.932,7.922-6.932,7.922
						L158.896,288.517z"/>
				</g>
			</g>
			<g>
				<g>
					<path style="fill:#1D1447;" d="M120.086,406.46l0.828,6.13c0,0,14.579,0.994,15.573-0.663c0.994-1.657-6.461-5.467-6.461-5.467
						S122.461,407.123,120.086,406.46z"/>
					<path style="fill:#0666BE;" d="M107.329,360.817c0,0,8.449,18.556,9.278,31.644c0.828,13.088,1.325,17.064,1.325,17.064
						s4.142,0.497,8.284-1.16c4.142-1.657,6.777-2.052,6.777-2.052s-2.138-41.686-11.085-49.141
						C112.962,349.717,107.329,360.817,107.329,360.817z"/>
				</g>
				<g>
					<path style="fill:#2880F4;" d="M114.916,360.983c0,0,21.67,20.039,23.417,31.048c1.748,11.01,2.796,18.349,2.796,18.349
						l10.311-1.398c0,0,3.845-20.796-5.942-38.097c-9.786-17.301-18-20.971-18-20.971L114.916,360.983z"/>
					<path style="fill:#1D1447;" d="M140.78,408.896l0.874,6.466c0,0,15.379,1.049,16.427-0.699
						c1.049-1.748-6.816-5.767-6.816-5.767S143.285,409.595,140.78,408.896z"/>
				</g>
				<path style="fill:#2880F4;" d="M89.692,347.643c0,0-3.029,16.544,20.039,15.612c23.068-0.932,22.136-14.68,22.136-14.68
					S92.256,351.663,89.692,347.643z"/>
			</g>
			<g>
				<path style="fill:#F6D1A9;" d="M116.372,285.896l-4.311,9.087c0,0,3.845,2.33,6.408,2.563c2.563,0.233,4.544-0.466,4.544-0.466
					l0.932-9.087L116.372,285.896z"/>
				<path style="fill:#313F71;" d="M129.091,281.931c-1.606,6.509-6.177,10.979-10.21,9.984c-4.033-0.995-5.999-7.078-4.394-13.587
					c1.606-6.509,2.755-12,10.21-9.984C132.152,270.358,130.697,275.421,129.091,281.931z"/>
				<path style="fill:#F6D1A9;" d="M115.091,275.935c0,0-1.515-1.398-1.689,0.408c-0.175,1.806,0.757,3.379,0.757,3.379
					L115.091,275.935z"/>
				<path style="fill:#F6D1A9;" d="M129.712,279.372c0,0,1.281-1.689,1.864-0.408c0.582,1.282-2.971,4.486-2.971,4.486
					L129.712,279.372z"/>
			</g>
		</g>
		<g>
			<rect x="87.828" y="358.537" style="fill:#1D1447;" width="46.311" height="4.893"/>
			<polygon style="fill:#1D1447;" points="120.071,416.556 101.896,416.556 105.741,411.663 116.401,411.663 			"/>
			<rect x="109.586" y="362.381" style="fill:#1D1447;" width="2.796" height="52.602"/>
		</g>
	</g>
	<g>
		<path style="fill:#BEB2ED;" d="M463.11,330.88c0,1.98-0.29,3.89-0.84,5.69h-74.04c1.64-8.24,3.97-16.85,7.2-25.59
			c3.9,1.99,7.1,5.14,9.16,8.99c2.94-2.28,6.63-3.66,10.65-3.66c4.29,0,8.2,1.56,11.24,4.13c3.5-5.59,9.7-9.31,16.8-9.31
			C454.23,311.13,463.11,319.97,463.11,330.88z"/>
		<path style="fill:#BEB2ED;" d="M137.825,140.642c0,1.98-0.291,3.89-0.843,5.69H39.817c-0.662-2.06-1.014-4.25-1.014-6.52
			c0-11.84,9.625-21.44,21.509-21.44c8.23,0,15.376,4.6,18.989,11.36c2.941-2.28,6.634-3.66,10.659-3.66
			c4.286,0,8.2,1.56,11.231,4.13c3.503-5.59,9.705-9.31,16.801-9.31C128.942,120.892,137.825,129.732,137.825,140.642z"/>
	</g>
	<g>
		<path style="fill:#1D1447;" d="M425.038,405.337l-10.472-49.109c0.018-0.129,0.011-0.263-0.025-0.397
			c-0.021-0.08-0.067-0.143-0.105-0.212l-3.121-14.637c0.106-0.211,0.147-0.457,0.081-0.704c-0.055-0.207-0.183-0.368-0.337-0.496
			l-6.305-29.565c0.306-0.239,0.457-0.647,0.35-1.047c-0.096-0.361-0.384-0.609-0.722-0.696l-2.95-13.835
			c0.176-0.237,0.259-0.54,0.177-0.848c-0.074-0.275-0.257-0.488-0.489-0.615l-3.032-14.22c0.053-0.173,0.076-0.356,0.026-0.544
			c-0.042-0.157-0.126-0.287-0.228-0.4l-3.551-16.654c0.133-0.223,0.182-0.495,0.111-0.766c-0.061-0.234-0.209-0.415-0.391-0.545
			l-2.84-13.319l0.241-0.064c0.534-0.141,0.853-0.688,0.712-1.222c-0.141-0.535-0.688-0.852-1.222-0.712l-0.149,0.039l-3.758-17.623
			c0.451-0.191,0.714-0.673,0.586-1.16c-0.12-0.456-0.537-0.735-0.988-0.726l-4.009-18.801c0.367-0.225,0.569-0.658,0.454-1.095
			c-0.107-0.408-0.45-0.684-0.843-0.734l-3.336-15.645c-0.114-0.54-0.648-0.889-1.186-0.77c-0.54,0.115-0.884,0.646-0.768,1.187
			l3.34,15.663l-23.118,6.087l-4.131-19.371c-0.115-0.541-0.65-0.886-1.186-0.77c-0.54,0.115-0.884,0.646-0.769,1.187l4.154,19.477
			c-0.491,0.169-0.782,0.68-0.648,1.19c0.118,0.449,0.522,0.746,0.966,0.746c0.031,0,0.061-0.009,0.092-0.012l4.001,18.762
			c-0.405,0.211-0.636,0.665-0.515,1.125c0.113,0.43,0.491,0.714,0.912,0.737l3.812,17.874c-0.177,0.236-0.261,0.538-0.18,0.846
			c0.073,0.275,0.259,0.482,0.49,0.609l2.996,14.05c0.005,0.045-0.004,0.09,0.008,0.135c0.008,0.032,0.029,0.057,0.04,0.088
			l30.009,140.721c0.1,0.47,0.515,0.791,0.977,0.791c0.069,0,0.14-0.007,0.21-0.022c0.54-0.114,0.884-0.646,0.769-1.187
			l-3.782-17.734l23.098-6.181l4.592,21.536c0.1,0.47,0.515,0.791,0.977,0.791c0.069,0,0.14-0.007,0.21-0.022
			C424.81,406.409,425.153,405.878,425.038,405.337z M389.662,363.524l23.098-6.181l2.554,11.975l-23.098,6.181L389.662,363.524z
			 M386.354,348.015l23.098-6.181l2.89,13.551l-23.098,6.181L386.354,348.015z M382.983,332.206l23.098-6.181l2.953,13.85
			l-23.098,6.181L382.983,332.206z M379.739,316.994l23.098-6.181l2.826,13.254l-23.098,6.181L379.739,316.994z M376.448,301.561
			l23.098-6.181l2.873,13.474l-23.098,6.181L376.448,301.561z M373.157,286.128l23.098-6.181l2.874,13.475l-23.098,6.181
			L373.157,286.128z M369.336,268.209l23.124-6.06l3.378,15.84l-23.098,6.181L369.336,268.209z M392.042,260.19l-23.124,6.06
			l-2.756-12.923l23.118-6.087L392.042,260.19z M365.744,251.369l-3.753-17.597l23.118-6.087l3.752,17.596L365.744,251.369z
			 M380.705,207.027l3.988,18.699l-23.118,6.087l-3.988-18.699L380.705,207.027z M394.975,388.442l-2.342-10.984l23.098-6.181
			l2.342,10.984L394.975,388.442z"/>
		<g>
			<g>
				<path style="fill:#1D1447;" d="M383.914,238.796l2.134,5.523c0,0-11.767,7.561-13.365,6.631
					c-1.598-0.931,2.895-7.566,2.895-7.566S382.228,240.448,383.914,238.796z"/>
				<path style="fill:#0666BE;" d="M384.437,240.371l-10.462,3.802c0,0-6.349-14.747-9.198-30.282
					c-2.858-15.544,11.252-35.68,11.252-35.68c7.931,4.274,17.921,6.343,17.921,6.343c0,10.943-11.098,19.818-14.274,25.526
					C376.509,215.788,384.437,240.371,384.437,240.371z"/>
			</g>
			<g>
				<path style="fill:#1D1447;" d="M390.786,241.545l2.134,5.523c0,0-11.767,7.561-13.365,6.631
					c-1.598-0.931,2.895-7.566,2.895-7.566S389.1,243.197,390.786,241.545z"/>
				<path style="fill:#2880F4;" d="M392.366,242.12l-10.463,3.802c0,0-4.446-8.884-7.296-24.419
					c-2.858-15.544,11.252-35.68,11.252-35.68c7.931,4.274,17.922,6.343,17.922,6.343c0,10.943-11.098,19.818-14.274,25.526
					C386.341,223.4,392.366,242.12,392.366,242.12z"/>
			</g>
			<g>
				<g>
					<path style="fill:#F6D1A9;" d="M368.157,120.381c0,0,1.665-6.264,0.555-6.422c-1.11-0.159-1.982,1.982-1.982,1.982
						s-1.507-8.008-3.013-7.374c-1.507,0.634-0.238,5.233-0.238,5.233s-1.189-6.105-2.696-5.947
						c-1.507,0.159,0.476,6.502,0.476,6.502s-1.665-4.757-2.854-4.519c-1.189,0.238,0.872,6.739,0.872,6.739
						s-1.824-4.282-3.251-4.044c-1.427,0.238,3.647,10.704,3.647,10.704L368.157,120.381z"/>
					<path style="fill:#EE8ECE;" d="M357.796,122.707l11.418-3.647c0,0,6.977,22.518,15.858,25.214
						c8.88,2.696,6.977,14.431,0.317,12.369C378.728,154.581,366.201,143.322,357.796,122.707z"/>
				</g>
				<path style="fill:#EE8ECE;" d="M408.7,157.911c-0.318,9.991-4.918,34.255-4.918,34.255s-10.779-1.121-18.71-5.395
					c-7.922-4.283-11.099-10.939-11.099-10.939s9.355-28.23,14.11-31.397c4.755-3.176,7.45-1.751,7.45-1.751l8.566,1.851
					C404.099,144.536,409.017,147.921,408.7,157.911z"/>
				<g>
					<path style="fill:#EEA2D5;" d="M370.799,126.988l11.418-3.647c0,0,6.977,22.518,15.858,25.214
						c8.88,2.696,6.977,14.43,0.317,12.369C391.732,158.862,379.204,147.603,370.799,126.988z"/>
					<path style="fill:#F6D1A9;" d="M380.631,124.239c0,0,1.665-6.264,0.555-6.422c-1.11-0.159-1.982,1.982-1.982,1.982
						s-1.506-8.008-3.013-7.374s-0.238,5.233-0.238,5.233s-1.189-6.105-2.696-5.947c-1.506,0.159,0.476,6.502,0.476,6.502
						s-1.665-4.757-2.854-4.52c-1.189,0.238,0.872,6.74,0.872,6.74s-1.824-4.282-3.251-4.044
						c-1.427,0.238,3.647,10.704,3.647,10.704L380.631,124.239z"/>
				</g>
			</g>
			<g>
				<path style="fill:#F6D1A9;" d="M405.052,128.468c0,0,1.586-9.092-3.594-9.832c-5.18-0.74-8.88,5.92-8.775,11.735
					c0.106,5.815,1.903,8.035,2.854,8.352c0.952,0.317,0.211,4.546,0.211,4.546s2.114,2.114,4.652,2.114
					c2.537,0,3.7-0.846,3.7-0.846l1.374-12.052c0,0,3.383,2.22,3.172-1.586C408.435,127.094,405.052,128.468,405.052,128.468z"/>
				<path style="fill:#313F71;" d="M405.052,128.468l-0.106-4.334c0,0-1.269-2.114-5.497-2.432c-4.229-0.317-6.555,1.374-6.237-1.48
					s1.374-4.863,3.277-4.652c1.903,0.211,3.066-0.952,4.757-1.057c1.691-0.106,7.612-0.423,8.457,4.44
					c0.846,4.863-2.326,9.409-2.326,9.409L405.052,128.468z"/>
			</g>
		</g>
		<g>
			<path style="fill:#FFCD75;" d="M381.534,61.592c0,7.19-5.08,17.99-11.65,24.26c-1.09,1.03-1.11,2.94-1.72,4.19
				c-0.2,0.4-0.46,0.73-0.84,0.94c-0.26,0.15-0.55,0.26-0.88,0.35c-1.98,0.54-4.94,0.12-6.58,0.12c-1.46,0-6.03-0.02-7.6-0.61
				c-0.07-0.03-0.14-0.06-0.2-0.09c-0.02-0.01-0.04-0.02-0.05-0.03c-0.92-0.51-0.88-1.43-0.85-2.45c0.02-0.9,0.03-1.87-0.64-2.72
				c-4.92-6.32-7.61-16.88-7.61-23.96c0-10.66,8.65-19.31,19.31-19.31C372.894,42.282,381.534,50.932,381.534,61.592z"/>
			<path style="fill:#1D1447;" d="M368.134,99.342c0,0.76-0.31,1.44-0.8,1.94c-0.49,0.49-1.17,0.8-1.93,0.8h-11.65
				c-1.52,0-2.74-1.23-2.74-2.74c0-0.76,0.31-1.44,0.8-1.94c0.39-0.39,0.9-0.66,1.47-0.75c-1.3-0.23-2.27-1.35-2.27-2.7
				c0-0.75,0.31-1.44,0.8-1.94c0.49-0.49,1.18-0.8,1.94-0.8h11.65c1.51,0,2.73,1.23,2.73,2.74c0,0.75-0.31,1.44-0.8,1.94
				c-0.39,0.39-0.89,0.66-1.46,0.76C367.164,96.872,368.134,97.992,368.134,99.342z"/>
			<path style="fill:#4A3B87;" d="M355.512,101.79h8.126l0,0c0,1.93-1.565,3.495-3.495,3.495h-1.136
				C357.077,105.285,355.512,103.72,355.512,101.79L355.512,101.79z"/>
			<path style="fill:#FFB024;" d="M369.464,61.992c-0.54-2.5-2.48-4.28-4.3-3.94c-1.65,0.3-4.18,2.44-2.56,13.39
				c0.31,2.1,0.61,4.01,0.9,5.73c-0.44,0.81-0.9,1.53-1.36,2.11c-0.98,1.26-1.57,1.38-1.73,1.38h-0.05c-1.27,0-2.13-1.48-2.79-3.92
				c1.9-5.76,3.49-11.79,3.17-15.21c-0.29-3.14-1.42-5.44-3.03-6.16c-0.81-0.37-1.7-0.27-2.41,0.26c-1.62,1.19-2.22,4.28-1.67,8.68
				l0.17,1.43c0.54,4.35,0.99,8.07,1.69,10.91c-1.56,4.63-3.3,9.05-4.33,11.62c-0.03,1.02-0.07,1.94,0.85,2.45
				c0.01,0.01,0.03,0.02,0.05,0.03c0.06,0.03,0.13,0.06,0.2,0.09c0.63-1.5,2.47-5.94,4.28-11.07c0.89,1.91,2.14,2.94,3.94,2.89
				c1.08-0.03,2.14-0.73,3.24-2.14c0.1-0.13,0.19-0.26,0.29-0.39c1.14,6.43,2.01,9.79,2.43,11.2c0.33-0.09,0.62-0.2,0.88-0.35
				c0.38-0.21,0.64-0.54,0.84-0.94c-0.51-1.88-1.43-5.74-2.58-12.53C368.154,72.532,370.144,65.112,369.464,61.992z M355.794,65.492
				l-0.18-1.43c-0.55-4.47,0.29-6.39,0.87-6.82c0.09-0.06,0.15-0.09,0.23-0.09c0.06,0,0.12,0.01,0.19,0.04
				c0.51,0.24,1.57,1.48,1.85,4.52c0.23,2.48-0.69,6.61-2,10.98C356.414,70.562,356.114,68.112,355.794,65.492z M364.584,71.152
				c-1.3-8.76,0.24-11,0.94-11.13c0.02-0.01,0.05-0.01,0.08-0.01c0.59,0,1.59,0.94,1.91,2.41c0.43,2-0.74,7.16-2.5,11.52
				C364.874,73.052,364.724,72.122,364.584,71.152z"/>
		</g>
	</g>
</g>
</svg>
